<svg width="462" viewBox="0 0 462 368" fill="none" xmlns="http://www.w3.org/2000/svg">
<g clip-path="url(#clip0)">
<path d="M27.6186 348.217C27.6186 348.217 7.84508 347.025 10.1747 360.873C10.1747 360.873 9.70688 363.317 11.9289 364.429C11.9289 364.429 11.9663 363.401 13.9591 363.752C14.6682 363.871 15.389 363.905 16.1063 363.854C17.0773 363.788 18.0002 363.408 18.7353 362.77C18.7353 362.77 24.2926 360.475 26.4585 351.399C26.4585 351.399 28.0583 349.418 27.9928 348.908L24.6575 350.31C24.6575 350.31 25.7942 352.717 24.9007 354.713C24.9007 354.713 24.7885 350.399 24.1476 350.507C24.0166 350.53 22.4168 351.343 22.4168 351.343C22.4168 351.343 24.3768 355.549 22.8846 358.578C22.8846 358.578 23.4459 353.414 21.7899 351.642L19.451 353.016C19.451 353.016 21.7478 357.344 20.1901 360.873C20.1901 360.873 20.5877 355.456 18.9598 353.348L16.8313 355.007C16.8313 355.007 18.9832 359.274 17.6687 362.2C17.6687 362.2 17.5003 355.895 16.3682 355.419C16.3682 355.419 14.4971 357.059 14.2211 357.755C14.2211 357.755 15.6993 360.849 14.7824 362.485C14.7824 362.485 14.2211 358.279 13.7626 358.279C13.7626 358.279 11.8915 361.06 11.7137 362.952C11.7137 362.952 11.7932 360.111 13.3089 357.994C12.239 358.195 11.2517 358.705 10.4694 359.461C10.4694 359.461 10.7594 357.494 13.7673 357.321C13.7673 357.321 15.3017 355.213 15.7133 355.082C15.7133 355.082 12.7195 354.834 10.9044 355.638C10.9044 355.638 12.4996 353.769 16.2606 354.624L18.3657 352.909C18.3657 352.909 14.4222 352.371 12.7522 352.965C12.7522 352.965 14.6748 351.325 18.9317 352.521L21.2192 351.156C21.2192 351.156 17.8558 350.432 15.8537 350.689C15.8537 350.689 17.9681 349.549 21.8882 350.782L23.5254 350.049C23.5254 350.049 21.0602 349.581 20.3398 349.488C19.6194 349.394 19.582 349.212 19.582 349.212C21.142 348.952 22.7436 349.13 24.2084 349.726C24.2084 349.726 27.6794 348.436 27.6186 348.217Z" fill="#094D35"/>
<path opacity="0.1" d="M13.9963 368C21.7263 368 27.9926 366.941 27.9926 365.635C27.9926 364.329 21.7263 363.27 13.9963 363.27C6.26636 363.27 0 364.329 0 365.635C0 366.941 6.26636 368 13.9963 368Z" fill="#094D35"/>
<path d="M461.789 316.768C461.789 316.768 450.637 316.095 451.966 323.9C451.898 324.296 451.957 324.705 452.135 325.066C452.313 325.426 452.601 325.722 452.957 325.909C452.957 325.909 452.957 325.33 454.099 325.526C454.499 325.592 454.906 325.611 455.31 325.582C455.858 325.546 456.378 325.333 456.793 324.975C456.793 324.975 459.927 323.68 461.148 318.563C461.148 318.563 462.047 317.446 462.014 317.16L460.143 317.964C460.143 317.964 460.784 319.32 460.278 320.451C460.278 320.451 460.217 318.016 459.857 318.072C459.782 318.072 458.875 318.539 458.875 318.539C458.875 318.539 459.984 320.876 459.151 322.615C459.151 322.615 459.464 319.708 458.533 318.707L457.205 319.479C457.205 319.479 458.501 321.923 457.621 323.914C457.621 323.914 457.85 320.857 456.929 319.67L455.727 320.605C455.727 320.605 456.943 323.007 456.194 324.662C456.194 324.662 456.096 321.105 455.46 320.839C455.005 321.222 454.598 321.66 454.248 322.143C454.248 322.143 455.081 323.886 454.567 324.811C454.567 324.811 454.248 322.442 453.987 322.432C453.987 322.432 452.943 323.998 452.836 325.073C452.884 324.076 453.194 323.109 453.734 322.269C453.13 322.383 452.574 322.672 452.134 323.101C452.134 323.101 452.298 321.988 454.005 321.89C454.005 321.89 454.871 320.703 455.104 320.628C455.104 320.628 453.416 320.488 452.391 320.941C452.391 320.941 453.294 319.895 455.413 320.371L456.597 319.404C456.597 319.404 454.375 319.1 453.435 319.437C453.435 319.437 454.52 318.502 456.915 319.184L458.206 318.413C457.214 318.196 456.198 318.11 455.184 318.156C455.184 318.156 456.372 317.511 458.585 318.207L459.52 317.791C459.52 317.791 458.117 317.52 457.729 317.478C457.341 317.436 457.298 317.324 457.298 317.324C458.179 317.178 459.082 317.278 459.909 317.614C459.909 317.614 461.822 316.889 461.789 316.768Z" fill="#094D35"/>
<path opacity="0.1" d="M454.108 327.919C458.467 327.919 462 327.323 462 326.587C462 325.851 458.467 325.255 454.108 325.255C449.75 325.255 446.217 325.851 446.217 326.587C446.217 327.323 449.75 327.919 454.108 327.919Z" fill="#094D35"/>
<path d="M438.859 338.019C438.859 338.019 425.395 337.21 427.005 346.642C426.923 347.12 426.995 347.613 427.21 348.048C427.425 348.484 427.772 348.841 428.202 349.067C428.202 349.067 428.202 348.366 429.606 348.6C430.089 348.682 430.581 348.705 431.07 348.67C431.73 348.624 432.357 348.365 432.857 347.932C432.857 347.932 436.641 346.371 438.11 340.192C438.11 340.192 439.2 338.841 439.158 338.496L436.884 339.468C436.884 339.468 437.661 341.103 437.053 342.463C437.053 342.463 436.978 339.524 436.543 339.594C436.454 339.594 435.359 340.159 435.359 340.159C435.359 340.159 436.697 343.015 435.687 345.085C435.687 345.085 436.07 341.571 434.943 340.37L433.343 341.304C433.343 341.304 434.906 344.253 433.848 346.656C433.848 346.656 434.12 342.968 433.006 341.515L431.561 342.641C431.561 342.641 433.025 345.548 432.132 347.539C432.132 347.539 432.015 343.249 431.243 342.926C431.243 342.926 429.975 344.038 429.783 344.501C429.783 344.501 430.789 346.609 430.167 347.721C430.167 347.721 429.783 344.861 429.47 344.847C429.47 344.847 428.207 346.74 428.067 348.039C428.13 346.839 428.505 345.675 429.156 344.665C428.427 344.803 427.754 345.15 427.22 345.665C427.22 345.665 427.416 344.328 429.465 344.211C429.465 344.211 430.508 342.772 430.789 342.683C430.789 342.683 428.75 342.515 427.515 343.062C427.515 343.062 428.605 341.8 431.163 342.375L432.595 341.206C432.595 341.206 429.91 340.837 428.773 341.244C428.773 341.244 430.083 340.127 432.983 340.94L434.541 340.005C434.541 340.005 432.253 339.514 430.892 339.692C430.892 339.692 432.328 338.916 434.999 339.757L436.113 339.257C436.113 339.257 434.433 338.925 433.947 338.874C433.46 338.823 433.427 338.687 433.427 338.687C434.489 338.511 435.579 338.632 436.576 339.038C436.576 339.038 438.896 338.168 438.859 338.019Z" fill="#094D35"/>
<path opacity="0.1" d="M429.582 351.483C434.845 351.483 439.111 350.764 439.111 349.876C439.111 348.988 434.845 348.268 429.582 348.268C424.319 348.268 420.053 348.988 420.053 349.876C420.053 350.764 424.319 351.483 429.582 351.483Z" fill="#094D35"/>
<path opacity="0.1" d="M376.801 346.235C400.655 346.235 419.992 343.22 419.992 339.5C419.992 335.781 400.655 332.766 376.801 332.766C352.947 332.766 333.61 335.781 333.61 339.5C333.61 343.22 352.947 346.235 376.801 346.235Z" fill="#094D35"/>
<path opacity="0.1" d="M240.127 363.761C266.931 363.761 288.66 361.583 288.66 358.896C288.66 356.209 266.931 354.031 240.127 354.031C213.322 354.031 191.593 356.209 191.593 358.896C191.593 361.583 213.322 363.761 240.127 363.761Z" fill="#094D35"/>
<path opacity="0.1" d="M93.0859 358.928C113.431 358.928 129.924 357.912 129.924 356.657C129.924 355.403 113.431 354.386 93.0859 354.386C72.7405 354.386 56.2473 355.403 56.2473 356.657C56.2473 357.912 72.7405 358.928 93.0859 358.928Z" fill="#094D35"/>
<path opacity="0.1" d="M158.492 16.0071C172.156 3.85573 193.609 1.36469 213.13 2.33213C274.453 5.37465 329.807 34.9539 377.69 68.4123C395.026 80.5216 412.091 93.575 423.342 110.255C446.263 144.204 439.452 191.239 407.605 219.211C396.766 228.726 383.631 236.036 370.144 242.49C346.165 253.992 320.292 263.222 293.081 265.858C273.672 267.728 254.025 266.209 234.733 263.592C180.825 256.282 127.913 240.13 83.5661 212.509C64.1154 200.358 45.778 185.309 37.76 165.703C29.7421 146.097 34.8738 121.252 54.7362 109.648C62.9506 104.848 72.7742 102.679 82.3873 100.646C96.5427 97.6504 110.923 94.6967 123.698 88.6023C136.89 82.3116 152.509 70.1462 149.894 56.2235C147.097 41.282 144.847 28.1585 158.492 16.0071Z" fill="#094D35"/>
<path opacity="0.9" d="M271.721 183.103V93.8648H283.884V67.2252H196.734V93.8648H208.897V183.103C192.101 189.476 177.641 200.801 167.436 215.576C157.232 230.35 151.765 247.875 151.761 265.826C151.761 314.688 191.411 354.297 240.319 354.297C289.226 354.297 328.871 314.688 328.871 265.826C328.867 247.873 323.398 230.347 313.191 215.572C302.984 200.797 288.521 189.473 271.721 183.103Z" fill="#96B7FE"/>
<path opacity="0.1" d="M271.721 93.589H208.878V94.7901H271.721V93.589Z" fill="black"/>
<path d="M190.77 263.451C190.77 263.451 244.098 262.517 270.762 249.183C297.426 235.849 312.662 247.753 311.231 255.843C309.8 263.933 302.189 279.622 271.717 281.548C241.245 283.473 190.77 263.451 190.77 263.451Z" fill="#094D35"/>
<path opacity="0.1" d="M190.77 263.451C190.77 263.451 244.098 262.517 270.762 249.183C297.426 235.849 312.662 247.753 311.231 255.843C309.8 263.933 302.189 279.622 271.717 281.548C241.245 283.473 190.77 263.451 190.77 263.451Z" fill="black"/>
<path d="M167.932 254.899C167.932 254.899 162.235 333.859 236.964 335.285C311.694 336.71 311.235 255.833 311.235 255.833C311.235 255.833 283.636 285.796 218.398 261.063C218.398 261.082 184.595 252.043 167.932 254.899Z" fill="#094D35"/>
<path opacity="0.1" d="M310.992 256.118C309.5 274.308 299.821 331.247 236.992 330.046C175.403 328.882 168.428 275.089 167.881 256.165C167.539 266.321 167.843 333.957 236.978 335.28C311.727 336.682 311.249 255.829 311.249 255.829C311.249 255.829 311.156 255.946 310.992 256.118Z" fill="black"/>
<path opacity="0.3" d="M237.418 230.516C242.774 230.516 247.115 226.179 247.115 220.828C247.115 215.477 242.774 211.14 237.418 211.14C232.062 211.14 227.721 215.477 227.721 220.828C227.721 226.179 232.062 230.516 237.418 230.516Z" fill="#094D35"/>
<path opacity="0.3" d="M242.957 188.066C246.271 188.066 248.959 185.381 248.959 182.07C248.959 178.758 246.271 176.074 242.957 176.074C239.642 176.074 236.955 178.758 236.955 182.07C236.955 185.381 239.642 188.066 242.957 188.066Z" fill="#094D35"/>
<path opacity="0.3" d="M229.564 153.458C232.878 153.458 235.566 150.773 235.566 147.462C235.566 144.15 232.878 141.465 229.564 141.465C226.249 141.465 223.562 144.15 223.562 147.462C223.562 150.773 226.249 153.458 229.564 153.458Z" fill="#094D35"/>
<path opacity="0.2" d="M178.14 228.301C177.625 232.386 177.728 237.499 181.381 239.406C178.317 237.807 190.878 219.683 189.095 215.982C185.283 208.083 178.607 224.506 178.14 228.301Z" fill="white"/>
<path opacity="0.3" d="M224.713 49.4188C230.069 49.4188 234.41 45.0811 234.41 39.7304C234.41 34.3796 230.069 30.042 224.713 30.042C219.357 30.042 215.016 34.3796 215.016 39.7304C215.016 45.0811 219.357 49.4188 224.713 49.4188Z" fill="#094D35"/>
<path opacity="0.3" d="M253.805 30.3224C257.786 30.3224 261.014 27.0979 261.014 23.1204C261.014 19.1428 257.786 15.9183 253.805 15.9183C249.824 15.9183 246.596 19.1428 246.596 23.1204C246.596 27.0979 249.824 30.3224 253.805 30.3224Z" fill="#094D35"/>
<path opacity="0.3" d="M233.026 7.48712C235.095 7.48712 236.773 5.81107 236.773 3.74356C236.773 1.67605 235.095 0 233.026 0C230.956 0 229.279 1.67605 229.279 3.74356C229.279 5.81107 230.956 7.48712 233.026 7.48712Z" fill="#094D35"/>
<path opacity="0.9" d="M132.764 123H54.3948V146.223H66.3375V327.4C66.2902 331.005 66.96 334.583 68.3081 337.927C69.6561 341.272 71.6556 344.315 74.1903 346.881C76.7251 349.446 79.7447 351.484 83.0739 352.874C86.4031 354.265 89.9756 354.981 93.584 354.981C97.1924 354.981 100.765 354.265 104.094 352.874C107.423 351.484 110.443 349.446 112.978 346.881C115.512 344.315 117.512 341.272 118.86 337.927C120.208 334.583 120.878 331.005 120.83 327.4V146.223H132.764V123Z" fill="#96B7FE"/>
<path d="M84.4922 187.272C84.4922 187.272 103.887 180.35 109.285 185.271C109.285 185.271 101.431 196.806 94.1989 196.343C86.9668 195.88 84.4922 187.272 84.4922 187.272Z" fill="#094D35"/>
<path opacity="0.1" d="M84.4922 187.272C84.4922 187.272 103.887 180.35 109.285 185.271C109.285 185.271 101.431 196.806 94.1989 196.343C86.9668 195.88 84.4922 187.272 84.4922 187.272Z" fill="black"/>
<path d="M109.276 185.29V316.787C109.276 318.968 108.846 321.128 108.01 323.143C107.175 325.158 105.95 326.989 104.407 328.532C102.863 330.074 101.03 331.297 99.0129 332.132C96.9958 332.967 94.834 333.397 92.6507 333.397C88.2414 333.397 84.0127 331.647 80.8948 328.532C77.777 325.417 76.0254 321.192 76.0254 316.787V185.29C76.0254 185.29 84.0293 183.135 91.5701 187.753C99.1109 192.37 109.276 185.29 109.276 185.29Z" fill="#094D35"/>
<path opacity="0.1" d="M120.821 146.078H66.3281V147.149H120.821V146.078Z" fill="black"/>
<path opacity="0.1" d="M92.6507 325.4C90.467 325.4 88.3048 324.97 86.2874 324.135C84.27 323.3 82.437 322.076 80.8932 320.533C79.3493 318.991 78.1248 317.159 77.2896 315.143C76.4544 313.127 76.0248 310.967 76.0254 308.785V317.09C76.0254 321.496 77.777 325.72 80.8948 328.835C84.0127 331.95 88.2414 333.7 92.6507 333.7C97.06 333.7 101.289 331.95 104.407 328.835C107.524 325.72 109.276 321.496 109.276 317.09V308.785C109.277 310.967 108.847 313.127 108.012 315.143C107.177 317.159 105.952 318.991 104.408 320.533C102.864 322.076 101.031 323.3 99.014 324.135C96.9966 324.97 94.8344 325.4 92.6507 325.4Z" fill="black"/>
<path opacity="0.3" d="M92.6554 172.377C94.5258 172.377 96.0422 170.862 96.0422 168.993C96.0422 167.124 94.5258 165.609 92.6554 165.609C90.7849 165.609 89.2686 167.124 89.2686 168.993C89.2686 170.862 90.7849 172.377 92.6554 172.377Z" fill="#094D35"/>
<path opacity="0.3" d="M103.737 159.15C104.928 159.15 105.894 158.186 105.894 156.996C105.894 155.806 104.928 154.841 103.737 154.841C102.546 154.841 101.581 155.806 101.581 156.996C101.581 158.186 102.546 159.15 103.737 159.15Z" fill="#094D35"/>
<path opacity="0.3" d="M88.6511 154.846C89.8422 154.846 90.8077 153.881 90.8077 152.691C90.8077 151.502 89.8422 150.537 88.6511 150.537C87.4601 150.537 86.4946 151.502 86.4946 152.691C86.4946 153.881 87.4601 154.846 88.6511 154.846Z" fill="#094D35"/>
<path opacity="0.2" d="M70.5476 212.154C70.033 216.239 70.1359 221.351 73.7894 223.258C70.7207 221.66 83.2856 203.54 81.5033 199.834C77.6814 191.945 71.0154 208.363 70.5476 212.154Z" fill="white"/>
<path opacity="0.3" d="M99.6816 108.47C104.226 108.47 107.91 104.789 107.91 100.249C107.91 95.7087 104.226 92.028 99.6816 92.028C95.1371 92.028 91.4531 95.7087 91.4531 100.249C91.4531 104.789 95.1371 108.47 99.6816 108.47Z" fill="#094D35"/>
<path opacity="0.3" d="M74.9964 92.2664C78.3757 92.2664 81.1151 89.5295 81.1151 86.1533C81.1151 82.7771 78.3757 80.0402 74.9964 80.0402C71.6171 80.0402 68.8777 82.7771 68.8777 86.1533C68.8777 89.5295 71.6171 92.2664 74.9964 92.2664Z" fill="#094D35"/>
<path opacity="0.3" d="M92.6273 72.8896C94.3841 72.8896 95.8082 71.4668 95.8082 69.7116C95.8082 67.9564 94.3841 66.5335 92.6273 66.5335C90.8705 66.5335 89.4463 67.9564 89.4463 69.7116C89.4463 71.4668 90.8705 72.8896 92.6273 72.8896Z" fill="#094D35"/>
<path d="M419.076 210.929C419.076 210.929 411.895 175.251 414.641 170.811C414.641 170.811 414.739 166.684 414.575 161.426C414.575 161.226 414.575 161.025 414.575 160.819C415.056 161.147 415.56 161.44 416.082 161.698C418.613 163.002 421.521 163.377 424.301 162.758L422.116 160.338C421.597 159.758 421.05 159.136 420.937 158.37C420.907 157.633 421.069 156.9 421.405 156.243C423.468 151.032 423.594 144.475 419.599 140.498C416.241 137.152 415.417 132.833 411.787 129.781C409.121 127.543 407.657 124.262 406.272 121.098C405.103 118.415 403.933 115.714 403.255 112.872C402.731 110.652 402.525 108.358 401.805 106.189C401.084 104.021 399.746 101.913 397.646 100.945C396.867 100.673 396.111 100.339 395.387 99.9451C394.488 99.3422 393.95 98.3608 393.305 97.5055C390.03 93.1544 378.99 95.7155 373.77 97.4821C372.352 97.9263 371.039 98.6529 369.911 99.618L369.957 99.5385L370.088 99.3469C369.519 99.8083 369.026 100.357 368.629 100.973C367.866 102.179 367.548 103.595 366.917 104.866C366.15 106.409 361.893 110.713 363.722 112.447C363.847 112.563 363.991 112.658 364.147 112.727C364.83 113.006 365.579 113.081 366.304 112.942C366.276 113.003 366.248 113.064 366.224 113.125C365.603 114.655 365.285 116.292 365.289 117.943C365.32 121.401 366.724 124.704 369.192 127.128C371.661 129.551 374.992 130.896 378.453 130.866C379.82 130.868 381.18 130.66 382.485 130.249C382.518 130.412 382.546 130.576 382.574 130.74C382.574 130.81 382.574 130.875 382.607 130.941L382.377 131.263L382.34 131.202L375.515 140.736C374.472 141.465 368.46 145.812 368.138 149.069C367.782 152.635 367.427 156.814 367.427 156.814L367.38 157.706C367.082 157.955 366.734 158.136 366.359 158.238C365.984 158.339 365.592 158.359 365.209 158.295C363.081 157.945 363.081 166.128 363.081 166.128C363.081 166.128 361.678 167.432 360.69 166.301C359.703 165.17 357.145 168.998 357.145 168.998L341.01 169.694H340.641L339.771 167.002C339.676 166.724 339.476 166.494 339.214 166.359C338.953 166.225 338.649 166.198 338.367 166.282C338.299 166.301 338.233 166.328 338.171 166.362L338.115 166.399C338.075 166.422 338.037 166.448 338.003 166.479C337.98 166.493 337.96 166.51 337.942 166.53C337.91 166.557 337.88 166.587 337.853 166.619C337.836 166.638 337.821 166.659 337.806 166.68L337.778 166.708C337.678 166.846 337.611 167.006 337.583 167.175C337.556 167.344 337.568 167.517 337.619 167.68L338.367 169.989C335.257 170.615 332.071 172.377 334.667 177.237L321.513 174.812L325.77 178.378L347.756 182.911C347.466 183.435 347.658 184.187 348.565 185.248C352.471 189.837 359.61 191.081 362.477 191.408C363.231 193.096 364.172 194.693 365.284 196.17L365.032 200.741C365.032 200.741 357.771 235.601 356.438 237.373C357.097 236.608 357.699 235.795 358.239 234.942C356.13 242.107 353.182 251.912 352.411 253.38C351.166 255.717 350.015 265.213 351.433 265.826C351.877 266.013 353.108 265.924 354.881 265.788V266.573L354.801 296.368C354.801 296.368 355.157 314.646 354.179 316.385C353.201 318.123 352.939 321.778 352.939 321.778C352.939 321.778 349.019 328.989 345.922 331.887L345.852 331.948L345.754 331.265C345.754 331.265 342.012 335.967 333.788 335.705C333.788 335.705 328.825 338.926 336.183 339.098C343.541 339.271 352.934 338.837 352.934 338.837C352.934 338.837 359.484 328.831 364.989 330.134V337.706H366.674V330.069C367.454 329.555 368.122 328.887 368.637 328.107C369.151 327.327 369.502 326.451 369.667 325.531C369.813 324.586 369.708 323.619 369.364 322.726C369.021 321.833 368.449 321.046 367.707 320.441C367.374 320.139 367.106 319.772 366.921 319.362C366.736 318.952 366.637 318.508 366.631 318.058L366.571 318.109C366.571 317.96 366.533 317.805 366.51 317.642C366.042 313.725 365.429 305.668 367.562 299.695C370.486 291.512 371.375 280.117 369.246 273.327C368.561 271.159 367.999 268.954 367.562 266.723C367.511 266.438 367.459 266.171 367.417 265.919C368.875 266.118 370.317 266.413 371.735 266.802C376.675 268.158 387.467 268.41 396.682 268.34C396.706 268.592 396.734 268.854 396.762 269.12C396.931 270.957 397.279 272.773 397.8 274.542C398.951 278.028 399.484 293.339 399.484 293.339C399.484 293.339 400.977 305.934 400.163 311.066C399.695 313.917 399.302 316.777 399.045 319.652V319.708C399.045 319.708 396.603 326.667 394.835 330.457C394.788 330.555 394.746 330.649 394.699 330.742C394.22 330.786 393.749 330.888 393.296 331.046C393.296 331.046 390.905 335.832 388.51 336.617C386.115 337.402 386.915 340.01 392.323 339.052C397.73 338.094 405.888 337.313 405.888 337.313L406.244 332.439L407.905 330.363L407.484 335.224L409.257 334.878L409.023 328.961L411.741 325.564C411.741 325.564 415.015 322.647 410.145 316.908V317.03C410.094 316.946 410.042 316.861 409.986 316.782V316.754C409.182 315.501 408.536 313.169 409.715 309.028C411.843 301.551 413.083 294.76 413.083 294.76C413.083 294.76 417.841 276.575 412.119 267.966H412.377C411.79 266.755 411.374 265.468 411.142 264.143C411.114 263.984 411.09 263.821 411.062 263.676C415.272 263.433 419.45 262.666 422.832 261.021C422.794 260.97 420.76 217.804 419.076 210.929ZM365.359 180.831V180.915L364.484 180.957L365.359 180.831ZM362.379 181.243C362.235 181.273 362.101 181.337 361.986 181.43C361.613 181.958 361.379 182.572 361.303 183.215L359.947 182.906C359.947 182.906 359.011 182.705 357.608 182.481L356.958 181.831C358.763 181.663 360.616 181.462 362.379 181.243Z" fill="url(#paint0_linear)"/>
<path d="M407.264 329.003L406.744 335.163L408.48 334.813L408.218 328.139L407.264 329.003Z" fill="#1D2366"/>
<path d="M367.684 299.779C365.593 305.729 366.192 313.763 366.659 317.665C366.833 319.109 366.992 320.002 366.992 320.002C366.992 320.002 363.867 327.115 363.605 327.377C363.343 327.639 354.399 333.088 354.399 333.088L348.149 336.729C348.149 336.729 341.81 333.953 344.874 332.99C345.495 332.741 346.053 332.359 346.512 331.873C349.543 328.985 353.384 321.801 353.384 321.801C353.384 321.801 353.641 318.161 354.595 316.427C355.549 314.693 355.203 296.48 355.203 296.48L355.283 266.784V262.914L367.174 263.003C367.251 264.317 367.423 265.625 367.689 266.914C368.117 269.137 368.67 271.334 369.345 273.495C371.412 280.276 370.547 291.624 367.684 299.779Z" fill="#FFB0B1"/>
<path opacity="0.1" d="M366.987 320.002C366.987 320.002 363.862 327.115 363.6 327.377C363.338 327.639 354.399 333.088 354.399 333.088L348.149 336.729C348.149 336.729 341.81 333.953 344.874 332.99C345.495 332.74 346.053 332.359 346.512 331.873L346.783 333.771L348.869 333.682L366.659 317.665C366.828 319.105 366.987 320.002 366.987 320.002Z" fill="black"/>
<path d="M366.772 318.077L348.846 334.21L346.76 334.294L346.329 331.261C346.329 331.261 342.681 335.934 334.606 335.682C334.606 335.682 329.746 338.893 336.945 339.066C344.145 339.239 353.356 338.804 353.356 338.804C353.356 338.804 359.778 328.831 365.158 330.134V337.678H366.809V330.046C367.577 329.529 368.233 328.862 368.736 328.085C369.239 327.308 369.58 326.438 369.738 325.526C369.881 324.587 369.781 323.626 369.445 322.737C369.109 321.848 368.549 321.061 367.82 320.451C367.492 320.147 367.23 319.78 367.05 319.372C366.87 318.964 366.775 318.523 366.772 318.077Z" fill="#1D2366"/>
<path d="M408.915 309.056C407.76 313.183 408.391 315.506 409.177 316.754V316.782C410.199 318.326 410.909 320.055 411.268 321.872L411.343 322.264L403.185 334.144L398.759 335.878C398.759 335.878 391.639 333.453 392.94 332.756C393.267 332.583 393.777 331.686 394.343 330.42C396.088 326.681 398.483 319.736 398.483 319.736V319.675C398.731 316.81 399.134 313.959 399.578 311.118C400.373 306.009 398.914 293.456 398.914 293.456C398.914 293.456 398.394 278.197 397.262 274.724C396.753 272.959 396.413 271.15 396.247 269.321C396.013 267.139 395.962 265.358 395.962 265.358C395.962 265.358 400.64 258.853 409.242 265.877C409.927 266.441 410.53 267.097 411.034 267.826C416.97 276.238 412.194 294.844 412.194 294.844C412.194 294.844 410.997 301.602 408.915 309.056Z" fill="#FFB0B1"/>
<path opacity="0.1" d="M411.343 322.241L403.185 334.121L398.759 335.855C398.759 335.855 391.639 333.429 392.94 332.733C393.267 332.56 393.777 331.663 394.343 330.396C397.356 330.396 398.918 333.238 398.918 333.238L402.735 332.635C402.735 332.635 407.774 322.745 408.901 322.143C410.028 321.54 409.074 317.628 409.074 317.628V316.632L409.163 316.74V316.768C410.192 318.315 410.907 320.049 411.268 321.871L411.343 322.241Z" fill="black"/>
<path d="M399.189 333.513C399.189 333.513 397.019 329.527 392.856 330.999C392.856 330.999 390.517 335.771 388.178 336.551C385.839 337.332 386.615 339.93 391.92 338.977C397.225 338.023 405.201 337.243 405.201 337.243L405.547 332.387L410.926 325.536C410.926 325.536 414.14 322.629 409.364 316.908V317.904C409.364 317.904 410.299 321.806 409.191 322.414C408.082 323.021 403.03 332.906 403.03 332.906L399.189 333.513Z" fill="#1D2366"/>
<path opacity="0.1" d="M367.16 263.007C367.237 264.322 367.409 265.629 367.675 266.919C362.777 266.199 358.235 266.559 355.26 266.788V262.919L367.16 263.007Z" fill="black"/>
<path opacity="0.1" d="M411.516 268.905C411.516 268.905 404.555 269.242 396.266 269.312C396.032 267.13 395.981 265.349 395.981 265.349C395.981 265.349 400.659 258.843 409.261 265.868C409.946 266.432 410.549 267.087 411.053 267.817C411.188 268.187 411.343 268.551 411.516 268.905Z" fill="black"/>
<path d="M411.516 268.125C411.516 268.125 381.049 269.597 371.754 266.999C362.459 264.4 353.267 266.648 351.877 266.041C350.488 265.433 351.62 255.983 352.813 253.641C354.006 251.3 360.714 227.623 360.714 227.623L367.137 194.146L373.91 192.277L374.378 192.146L386.171 188.875L394.82 186.491C394.82 186.491 412.007 253.529 410.529 258.465C409.993 260.358 409.908 262.351 410.281 264.283C410.512 265.615 410.928 266.908 411.516 268.125Z" fill="#1D2366"/>
<path d="M344.767 171.25C344.767 171.25 338.686 177.756 343.289 181.397C347.892 185.038 350.928 181.747 350.928 181.747L344.767 171.25Z" fill="#C7DAF5"/>
<path opacity="0.1" d="M344.767 171.25C344.767 171.25 338.686 177.756 343.289 181.397C347.892 185.038 350.928 181.747 350.928 181.747L344.767 171.25Z" fill="black"/>
<path d="M393.941 128.412C393.941 128.412 393.23 129.085 392.154 130.09C390.624 131.515 388.36 133.604 386.349 135.357C383.542 137.778 381.273 139.563 382.092 138.035C382.911 136.507 382.756 133.88 382.349 131.408L382.265 130.917C381.925 129.101 381.476 127.308 380.918 125.547C380.918 125.547 385.413 119.743 387.902 117.452C388.837 116.597 389.478 116.233 389.511 116.831C389.558 117.644 390.171 119.42 390.914 121.346C390.943 121.402 390.966 121.462 390.989 121.519C391.495 122.813 392.061 124.164 392.561 125.318C393.324 127.089 393.941 128.412 393.941 128.412Z" fill="#FFB0B1"/>
<path opacity="0.1" d="M390.985 121.519C390.562 123.789 389.537 125.905 388.016 127.644C386.495 129.384 384.535 130.684 382.34 131.408C381.996 129.424 381.517 127.466 380.908 125.547C380.908 125.547 389.371 114.62 389.502 116.831C389.581 117.672 390.208 119.532 390.985 121.519Z" fill="black"/>
<path opacity="0.1" d="M381.507 134.329L382.602 132.791C382.602 132.791 383.327 137.212 385.998 135.264C388.669 133.315 388.805 149.939 388.805 149.939L385.932 192.74L365.228 191.501L365.813 170.82L368.152 160.412L373.948 145.256L377.419 140.25L381.507 134.329Z" fill="black"/>
<path d="M388.796 150.2L386.204 188.898L385.933 192.997L374.388 192.31L373.92 192.282L365.214 191.763L365.799 171.077L368.138 160.674L373.934 145.517L377.419 140.507L381.521 134.591L382.616 133.048C382.616 133.048 383.341 137.474 386.012 135.521L386.064 135.483C388.669 133.81 388.796 150.2 388.796 150.2Z" fill="#1D2366"/>
<path d="M368.461 157.029C368.461 157.029 367.422 159.197 365.336 158.851C363.249 158.505 363.254 166.656 363.254 166.656C363.254 166.656 361.851 167.956 360.915 166.829C359.979 165.703 357.444 169.516 357.444 169.516L341.647 170.213C341.647 170.213 348.664 173.419 347.288 183.135C347.288 183.135 371.146 181.659 371.941 179.396C372.736 177.134 368.461 157.029 368.461 157.029Z" fill="white"/>
<path opacity="0.03" d="M368.461 157.029C368.461 157.029 367.422 159.197 365.336 158.851C363.249 158.505 363.254 166.656 363.254 166.656C363.254 166.656 361.851 167.956 360.915 166.829C359.979 165.703 357.444 169.516 357.444 169.516L341.647 170.213C341.647 170.213 348.664 173.419 347.288 183.135C347.288 183.135 371.146 181.659 371.941 179.396C372.736 177.134 368.461 157.029 368.461 157.029Z" fill="black"/>
<path d="M322.542 175.326L326.71 178.882L360.999 186.08L356.742 181.747L322.542 175.326Z" fill="white"/>
<path d="M381.568 135.694C381.002 136.544 379.374 141.012 378.008 144.896C376.876 148.13 375.926 150.972 375.926 150.972C375.926 150.972 373.714 165.371 372.586 167.97C371.459 170.568 372.067 180.728 372.067 180.728L367.857 205.793C367.857 205.793 365.948 218.716 363.001 226.432C360.11 234.008 356.836 237.574 356.747 237.681C358.052 235.919 365.167 201.176 365.167 201.176L367.506 157.374C367.506 157.374 367.852 153.215 368.203 149.658C368.554 146.102 375.58 141.246 375.58 141.246L382.372 131.595C383.069 132.544 382.611 134.133 381.568 135.694Z" fill="white"/>
<path d="M363.853 191.978C363.853 191.978 353.87 191.548 349.01 185.734C344.149 179.92 360.209 183.397 360.209 183.397L364.372 184.332L363.853 191.978Z" fill="#FFB0B1"/>
<path opacity="0.1" d="M410.562 258.497C410.026 260.391 409.941 262.384 410.314 264.316C399.405 265.092 387.734 262.138 387.734 262.138C385.563 264.134 379.833 267.083 379.833 267.083L376.708 228.399C374.715 223.193 373.934 195.876 373.934 195.876C373.934 195.876 374.112 194.445 374.402 192.305C374.402 192.254 374.402 192.197 374.425 192.146C375.206 186.164 376.764 174.933 377.503 173.414C378.546 171.334 374.294 165.787 374.294 165.787L376.226 149.298L376.46 147.312C380.544 145.489 383.669 139.68 383.669 139.68L386.064 135.474C388.679 133.801 388.805 150.191 388.805 150.191L386.213 188.889L394.863 186.505C394.863 186.505 412.035 253.553 410.562 258.497Z" fill="black"/>
<path d="M421.761 261.185C409.869 267.083 388.253 261.619 388.253 261.619C386.082 263.615 380.352 266.564 380.352 266.564L377.227 227.881C375.234 222.679 374.453 195.362 374.453 195.362C374.453 195.362 376.97 174.98 378.008 172.9C378.312 172.293 378.167 171.391 377.807 170.418C376.032 165.785 375.38 160.798 375.903 155.865L376.736 148.784L376.97 146.798C381.049 144.975 384.174 139.161 384.174 139.161L386.349 135.357L390.353 128.347L392.248 125.028L392.566 125.318L395.026 127.543C395.026 127.543 396.07 128.403 397.632 129.725C401.037 132.59 406.922 137.638 409.954 140.722C412.625 143.447 413.467 154.023 413.696 161.987C413.86 167.226 413.761 171.335 413.761 171.335C411.067 175.756 418.098 211.317 418.098 211.317C419.763 218.169 421.761 261.185 421.761 261.185Z" fill="white"/>
<path opacity="0.03" d="M398.937 139.077C398.937 139.077 390.774 154.603 391.733 160.496C392.692 166.39 395.377 173.073 394.072 174.634C393.626 175.225 393.048 175.705 392.385 176.036C391.722 176.367 390.991 176.539 390.25 176.541C388.95 176.63 385.474 179.055 385.474 179.317C385.474 179.579 382.265 179.579 379.393 180.794C376.52 182.009 372.273 182.701 372.273 182.701C372.273 182.701 364.026 182.439 363.245 183.219C362.463 184 361.682 188.683 363.333 192.412C364.985 196.142 366.804 198.918 368.194 199.423C369.583 199.928 378.35 196.997 385.465 196.301C392.58 195.605 400.34 189.987 400.34 189.987C400.34 189.987 408.845 186.949 410.323 181.831C411.801 176.714 408.499 148.616 408.499 148.616C408.499 148.616 405.954 135.521 398.937 139.077Z" fill="black"/>
<path opacity="0.03" d="M397.889 137.778C397.889 137.778 389.731 153.299 390.685 159.197C391.639 165.095 394.329 171.774 393.024 173.335C392.578 173.926 392 174.406 391.337 174.736C390.674 175.067 389.943 175.24 389.202 175.242C387.902 175.33 384.431 177.756 384.431 178.018C384.431 178.28 381.217 178.275 378.35 179.49C375.482 180.705 371.23 181.397 371.23 181.397C371.23 181.397 362.983 181.14 362.201 181.92C361.42 182.701 360.639 187.384 362.29 191.113C363.942 194.843 365.761 197.619 367.151 198.124C368.54 198.628 377.306 195.693 384.426 195.002C391.546 194.31 399.278 188.674 399.278 188.674C399.278 188.674 407.783 185.64 409.261 180.523C410.739 175.405 407.437 147.307 407.437 147.307C407.437 147.307 404.92 134.221 397.889 137.778Z" fill="black"/>
<path d="M398.67 138.297C398.67 138.297 390.517 153.822 391.452 159.697C392.388 165.572 395.096 172.274 393.791 173.835C393.345 174.427 392.768 174.907 392.105 175.238C391.442 175.569 390.711 175.741 389.969 175.742C388.669 175.831 385.198 178.256 385.198 178.518C385.198 178.78 381.984 178.78 379.117 179.995C376.249 181.21 371.997 181.902 371.997 181.902C371.997 181.902 363.75 181.64 362.968 182.42C362.187 183.201 361.406 187.884 363.057 191.613C364.709 195.343 366.528 198.119 367.918 198.624C369.307 199.128 378.073 196.198 385.193 195.502C392.313 194.805 400.036 189.174 400.036 189.174C400.036 189.174 408.541 186.136 410.019 181.018C411.497 175.901 408.194 147.803 408.194 147.803C408.194 147.803 405.701 134.74 398.67 138.297Z" fill="white"/>
<path opacity="0.1" d="M398.497 179.925C398.497 179.925 391.986 178.625 394.245 180.794C396.505 182.962 396.5 184.869 399.279 184.781C402.057 184.692 398.497 179.925 398.497 179.925Z" fill="black"/>
<path opacity="0.1" d="M409.523 226.67C409.523 226.67 406.571 228.666 412.213 233.26C417.854 237.854 409.523 226.67 409.523 226.67Z" fill="black"/>
<path opacity="0.1" d="M403.877 243.06C403.877 243.322 402.838 252.599 406.744 254.941C410.65 257.282 403.877 243.06 403.877 243.06Z" fill="black"/>
<path d="M341.899 170.203C338.756 170.311 331.949 171.274 335.476 177.845C338.597 183.659 343.836 179.775 346.769 176.821C346.053 174.074 344.31 171.705 341.899 170.203Z" fill="#FFB0B1"/>
<path d="M346.821 176.771C346.868 176.728 346.91 176.681 346.952 176.639C346.91 176.681 346.868 176.728 346.821 176.771Z" fill="#FFB0B1"/>
<path opacity="0.1" d="M397.632 129.982C394.292 132.263 391.49 134.189 390.947 134.591C389.445 135.694 386.583 142.199 384.758 145.517C383.289 148.191 378.532 148.878 376.736 149.046L376.951 147.078C381.03 145.26 384.155 139.446 384.155 139.446L392.229 125.313L395.008 127.828C395.008 127.828 396.069 128.664 397.632 129.982Z" fill="black"/>
<path d="M397.632 129.725C394.292 132.001 391.49 133.932 390.947 134.329C389.445 135.437 386.583 141.938 384.758 145.256C383.289 147.929 378.532 148.616 376.736 148.784L376.969 146.798C381.049 144.975 384.173 139.161 384.173 139.161L392.248 125.028L395.026 127.543C395.026 127.543 396.069 128.384 397.632 129.725Z" fill="#DCE7FF"/>
<path d="M391.205 118.654C391.208 119.559 391.112 120.461 390.919 121.346C390.571 122.998 389.897 124.565 388.936 125.954C387.189 128.493 384.588 130.322 381.607 131.109C378.625 131.896 375.46 131.59 372.685 130.245C369.91 128.9 367.71 126.606 366.483 123.779C365.257 120.952 365.085 117.779 366 114.837C366.914 111.894 368.854 109.377 371.468 107.741C374.081 106.105 377.195 105.459 380.244 105.921C383.293 106.383 386.076 107.921 388.087 110.258C390.098 112.594 391.204 115.572 391.205 118.654Z" fill="#FFB0B1"/>
<path opacity="0.1" d="M413.71 161.987C411.944 160.901 410.507 159.357 409.551 157.519C408.826 156.085 408.344 154.435 407.1 153.411C405.987 152.505 404.48 152.28 403.1 151.874C398.53 150.523 394.68 146.349 394.549 141.592C394.484 139.353 395.181 137.114 394.863 134.899C394.683 133.642 394.182 132.452 393.408 131.445C393.029 130.96 392.61 130.508 392.154 130.095C391.546 129.52 390.905 128.964 390.353 128.351C389.995 127.976 389.681 127.56 389.417 127.113C389.211 126.746 389.044 126.359 388.917 125.958C388.066 123.304 388.837 120.144 387.883 117.457C387.883 117.41 387.85 117.359 387.832 117.312C387.467 116.354 386.732 115.401 385.717 115.326C384.702 115.251 383.818 116.097 382.845 116.48C380.805 117.27 378.602 115.924 376.904 114.55C375.206 113.176 373.288 111.606 371.122 111.914C369.695 112.115 368.563 113.092 367.249 113.597C366.944 113.708 366.631 113.796 366.313 113.858C367.43 111.084 369.479 108.783 372.108 107.353C374.737 105.922 377.782 105.45 380.721 106.018C383.661 106.585 386.311 108.157 388.217 110.464C390.123 112.77 391.166 115.667 391.167 118.658C391.17 119.563 391.074 120.466 390.882 121.35C390.91 121.406 390.933 121.467 390.956 121.523C391.462 122.818 392.028 124.168 392.528 125.323L394.989 127.547C394.989 127.547 396.032 128.407 397.594 129.73C401 132.595 406.885 137.642 409.916 140.727C412.625 143.447 413.467 154.023 413.71 161.987Z" fill="black"/>
<path d="M367.127 105.666C367.749 104.399 368.063 102.983 368.802 101.787C369.892 100.034 371.801 98.9356 373.751 98.2626C378.86 96.5053 389.656 93.9489 392.879 98.2626C393.515 99.1179 394.039 100.099 394.919 100.702C395.63 101.089 396.369 101.42 397.131 101.693C399.19 102.66 400.504 104.759 401.206 106.918C401.908 109.077 402.113 111.367 402.609 113.583C403.264 116.415 404.42 119.102 405.566 121.776C406.918 124.93 408.373 128.197 410.964 130.431C414.524 133.474 415.324 137.778 418.612 141.11C422.528 145.074 422.402 151.612 420.385 156.8C420.051 157.456 419.89 158.186 419.918 158.921C420.107 159.673 420.508 160.354 421.073 160.884L423.211 163.296C420.657 163.846 417.994 163.551 415.623 162.455C413.252 161.359 411.303 159.521 410.071 157.22C409.341 155.785 408.859 154.136 407.615 153.117C406.501 152.205 405 151.986 403.615 151.574C399.045 150.224 395.195 146.05 395.064 141.293C394.998 139.059 395.695 136.815 395.382 134.6C395.194 133.359 394.695 132.185 393.932 131.188C392.73 129.627 390.929 128.566 389.956 126.856C388.309 123.953 389.558 120.177 388.37 117.041C388.005 116.106 387.275 115.13 386.255 115.055C385.236 114.98 384.356 115.831 383.383 116.209C381.344 116.999 379.145 115.653 377.447 114.279C375.749 112.905 373.826 111.339 371.665 111.648C370.233 111.849 369.106 112.821 367.787 113.326C366.814 113.7 364.84 114.036 363.984 113.214C362.192 111.494 366.36 107.203 367.127 105.666Z" fill="#591D4B"/>
<path opacity="0.1" d="M411.287 155.785C410.562 154.351 410.08 152.701 408.836 151.677C407.722 150.766 406.216 150.546 404.836 150.14C400.266 148.789 396.416 144.615 396.285 139.858C396.215 137.619 396.916 135.38 396.598 133.165C396.419 131.908 395.918 130.718 395.143 129.711C393.946 128.15 392.14 127.085 391.172 125.374C389.521 122.472 390.774 118.696 389.586 115.56C389.221 114.625 388.491 113.648 387.472 113.573C386.452 113.499 385.572 114.344 384.599 114.723C382.56 115.518 380.357 114.172 378.663 112.798C376.97 111.423 375.042 109.858 372.877 110.162C371.473 110.363 370.322 111.335 369.003 111.844C368.03 112.218 366.056 112.555 365.2 111.732C363.408 110.003 367.576 105.712 368.33 104.179C368.952 102.913 369.265 101.497 370.004 100.3L370.131 100.104C369.58 100.569 369.107 101.118 368.727 101.73C367.979 102.927 367.67 104.343 367.053 105.61C366.299 107.147 362.131 111.438 363.923 113.162C364.774 113.985 366.73 113.629 367.726 113.274C369.041 112.769 370.168 111.797 371.599 111.592C373.761 111.288 375.683 112.854 377.381 114.228C379.079 115.602 381.283 116.948 383.318 116.158C384.295 115.779 385.147 114.924 386.19 115.003C387.233 115.083 387.944 116.032 388.309 116.99C389.497 120.107 388.244 123.883 389.89 126.804C390.863 128.51 392.669 129.576 393.866 131.137C394.641 132.144 395.142 133.333 395.321 134.591C395.639 136.806 394.938 139.045 395.008 141.283C395.153 146.046 398.989 150.219 403.559 151.565C404.939 151.972 406.445 152.191 407.559 153.107C408.803 154.126 409.28 155.776 410.01 157.211C411.243 159.512 413.192 161.349 415.562 162.446C417.933 163.542 420.597 163.837 423.15 163.287L422.144 162.146C417.728 162.221 413.289 159.725 411.287 155.785Z" fill="black"/>
<path opacity="0.1" d="M381.311 135.955C380.74 136.806 379.112 141.274 377.751 145.153C376.478 144.662 375.318 141.503 375.318 141.503L382.096 131.852C382.807 132.805 382.349 134.394 381.311 135.955Z" fill="black"/>
<path d="M381.568 135.694C381.002 136.544 379.374 141.012 378.008 144.896C376.736 144.405 375.58 141.246 375.58 141.246L382.373 131.595C383.07 132.544 382.611 134.133 381.568 135.694Z" fill="#DCE7FF"/>
<path d="M342.082 180.074L338.316 168.227C338.271 168.087 338.254 167.94 338.266 167.794C338.277 167.649 338.318 167.506 338.385 167.376C338.452 167.246 338.544 167.13 338.656 167.035C338.767 166.941 338.897 166.869 339.036 166.824C339.176 166.778 339.323 166.76 339.47 166.771C339.616 166.782 339.759 166.823 339.89 166.89C340.02 166.957 340.136 167.049 340.231 167.162C340.325 167.274 340.396 167.404 340.44 167.544L344.206 179.401L343.831 181.883L342.082 180.074Z" fill="#BE8B87"/>
<path opacity="0.1" d="M338.671 167.175C338.811 167.13 338.958 167.113 339.105 167.125C339.251 167.137 339.394 167.178 339.524 167.245C339.654 167.313 339.77 167.405 339.865 167.517C339.959 167.63 340.031 167.759 340.075 167.899L343.841 179.747L343.555 181.616L343.831 181.902L344.205 179.42L340.44 167.572C340.396 167.432 340.325 167.302 340.231 167.19C340.136 167.077 340.02 166.985 339.889 166.918C339.759 166.851 339.616 166.81 339.469 166.799C339.323 166.788 339.176 166.806 339.036 166.853C338.802 166.925 338.599 167.075 338.461 167.278C338.527 167.236 338.598 167.201 338.671 167.175Z" fill="white"/>
<path d="M342.082 180.074L344.196 179.401L343.887 181.439L343.822 181.883L343.204 181.238L342.082 180.074Z" fill="#EFC8C4"/>
<path d="M343.205 181.238C343.243 181.193 343.289 181.155 343.34 181.126C343.371 181.107 343.405 181.097 343.441 181.097C343.476 181.097 343.511 181.107 343.541 181.126C343.572 181.161 343.597 181.2 343.616 181.243C343.644 181.292 343.684 181.334 343.731 181.365C343.778 181.397 343.831 181.417 343.888 181.425L343.822 181.892L343.205 181.238Z" fill="#727A9C"/>
<path d="M338.297 172.423C338.297 172.423 345.852 172.381 344.07 175.588C342.288 178.794 339.514 179.186 339.514 179.186L338.297 172.423Z" fill="#FFB0B1"/>
</g>
<defs>
<linearGradient id="paint0_linear" x1="372.881" y1="339.239" x2="372.881" y2="95.1079" gradientUnits="userSpaceOnUse">
<stop stop-color="#808080" stop-opacity="0.25"/>
<stop offset="0.54" stop-color="#808080" stop-opacity="0.12"/>
<stop offset="1" stop-color="#808080" stop-opacity="0.1"/>
</linearGradient>
<clipPath id="clip0">
<rect width="462" height="368" fill="white"/>
</clipPath>
</defs>
</svg>
