<svg width="688" viewBox="0 0 688 469" fill="none" xmlns="http://www.w3.org/2000/svg">
<g clip-path="url(#clip0)">
<path opacity="0.1" d="M228.731 468.736C262.237 468.736 289.398 464.538 289.398 459.359C289.398 454.18 262.237 449.982 228.731 449.982C195.226 449.982 168.065 454.18 168.065 459.359C168.065 464.538 195.226 468.736 228.731 468.736Z" fill="#094D35"/>
<path opacity="0.1" d="M558.505 469C600.314 469 634.207 464.802 634.207 459.623C634.207 454.444 600.314 450.246 558.505 450.246C516.696 450.246 482.803 454.444 482.803 459.623C482.803 464.802 516.696 469 558.505 469Z" fill="#094D35"/>
<path opacity="0.1" d="M8.61682 202.642H71.8047V285.526H13.2428C13.0871 286.377 12.9377 287.234 12.7758 288.09H71.8047V354.935C71.6989 354.905 71.6055 354.869 71.5058 354.833C69.8373 354.198 68.1811 353.527 66.525 352.808L65.4666 352.346C63.8063 351.591 62.1461 350.792 60.4858 349.949C59.9068 349.656 59.3277 349.35 58.755 349.039C49.5378 344.07 41.1646 337.774 33.9256 330.368C33.7139 330.171 33.5147 329.961 33.303 329.769C32.2944 328.715 31.3044 327.648 30.3456 326.558L29.2872 325.359C28.1541 324.023 27.0583 322.651 25.9936 321.261C25.838 321.057 25.6886 320.853 25.5267 320.662C21.1968 314.884 17.6016 308.628 14.8179 302.027C14.7308 301.83 14.6561 301.614 14.5751 301.428C13.7201 299.311 12.9626 297.174 12.3026 295.017C12.0162 294.112 11.7423 293.219 11.5057 292.279C11.4185 292.003 11.3438 291.733 11.2753 291.464C7.73895 278.18 7.32181 264.381 7.32181 250.678C7.32181 249.078 7.32181 247.472 7.32181 245.884C7.32181 240.342 7.39029 234.764 7.48991 229.191C7.48991 227.747 7.55217 226.309 7.5833 224.859C7.67046 221.18 7.79499 217.501 7.95686 213.822C7.99422 212.798 8.04403 211.779 8.10006 210.761C8.10006 210.173 8.13119 209.586 8.19345 208.999C8.34288 206.866 8.4674 204.751 8.61682 202.642Z" fill="#094D35"/>
<path opacity="0.1" d="M71.8047 110.356H37.1444C42.7786 101.87 48.9347 93.7142 55.5797 85.934C60.7286 79.8464 66.1639 73.9145 71.8047 68.1984V110.356Z" fill="#262C2A"/>
<path opacity="0.1" d="M71.8047 112.921V200.077H8.81604C8.81604 199.826 8.85962 199.568 8.8783 199.316C8.93433 198.627 8.99037 197.938 9.05263 197.255C9.12111 196.452 9.19583 195.643 9.27676 194.858C9.3577 194.074 9.44487 193.115 9.53826 192.246C9.63165 191.377 9.71881 190.496 9.82465 189.628C9.9305 188.759 10.0239 187.89 10.136 187.027C10.248 186.164 10.3476 185.29 10.4659 184.427C10.5593 183.708 10.6589 182.995 10.7586 182.276C10.9018 181.263 11.0512 180.245 11.2131 179.238C11.2131 179.088 11.2566 178.932 11.2815 178.789C12.4179 171.42 13.9663 164.115 15.9199 156.907C17.9649 149.345 20.5763 141.936 23.7336 134.737C27.0892 127.206 31.0181 119.925 35.4883 112.951L71.8047 112.921Z" fill="#262C2A"/>
<path opacity="0.1" d="M86.8903 202.636V285.526H221.852V202.636H86.8903ZM86.8903 288.084V359.267C87.6623 359.423 88.4281 359.572 89.1877 359.698C90.2212 359.89 91.2485 360.064 92.3007 360.213C92.5 360.243 92.7054 360.273 92.9233 360.291C93.3343 360.357 93.7576 360.411 94.1685 360.465C95.2083 360.603 96.2418 360.717 97.2815 360.807C97.7734 360.855 98.2715 360.896 98.7696 360.932L99.9712 361.022C100.625 361.07 101.272 361.106 101.914 361.124C102.312 361.124 102.711 361.16 103.122 361.172C103.433 361.172 103.744 361.172 104.068 361.172C104.392 361.172 104.852 361.172 105.245 361.172C105.78 361.172 106.316 361.172 106.845 361.172H107.561C108.096 361.172 108.632 361.172 109.161 361.124H109.198C109.565 361.124 109.939 361.124 110.313 361.076C110.416 361.082 110.52 361.082 110.624 361.076C110.935 361.076 111.246 361.076 111.545 361.034H111.763L113.849 360.879C114.534 360.819 115.225 360.741 115.922 360.669L117.342 360.507C123.117 359.728 128.828 358.559 134.432 357.008C147.021 353.628 159.336 348.901 171.919 345.438C188.188 340.974 206.162 338.781 221.883 344.239V288.084H86.8903ZM221.852 110.356V0.00598415C207.076 -0.148079 192.34 1.51512 178.002 4.95519C143.827 13.2178 113.164 31.1392 86.8903 54.0278V110.35H93.6642V112.909H86.8903V200.077H221.852V112.915H121.476V110.356H221.852ZM395.203 73.0817C386.748 72.7941 378.343 70.2176 370.741 66.239C356.203 58.6295 344.591 46.8796 331.616 36.9632C304.658 16.3096 271.224 3.84671 236.925 0.754956V110.356H429.589L430.068 109.871L395.203 73.0817ZM412.754 70.0858L431.363 89.7388V64.9328C425.131 65.6758 419.671 67.4434 412.779 70.0618L412.754 70.0858ZM431.363 376.942V288.084H391.71C391.604 287.707 391.498 287.324 391.374 286.94C391.492 287.324 391.592 287.707 391.704 288.084H236.95V352.346C238.419 353.395 239.87 354.497 241.308 355.618C242.858 356.816 244.39 358.08 245.928 359.321L247.478 360.555C248.219 361.154 248.966 361.753 249.719 362.317C251.214 363.483 252.722 364.633 254.246 365.768C254.999 366.367 255.771 366.906 256.537 367.469C268.694 376.415 281.519 384.488 294.908 391.622C297.909 393.22 300.937 394.78 303.992 396.302C306.027 397.302 308.076 398.297 310.13 399.262C313.219 400.712 316.332 402.11 319.469 403.456C348.4 415.954 378.991 424.53 410.369 428.939C417.338 429.93 424.334 430.709 431.357 431.276V376.936H431.98L431.363 376.942ZM236.95 112.915V200.077H431.388V112.915H236.95ZM236.95 202.636V285.526H431.388V202.636H236.95ZM446.48 64.825V92.495L470.233 67.4134C462.363 66.1911 454.445 65.3183 446.48 64.795V64.825ZM446.48 202.666V285.526H635.596V202.636L446.48 202.666ZM634.904 383.521L635.571 288.084H446.48V432.229C458.661 432.721 470.861 432.581 483.027 431.809H483.239C489.05 431.458 494.834 430.946 500.591 430.275H500.721C531.435 426.835 561.467 419.123 589.878 407.381L634.904 383.521ZM672.061 216.285C671.352 214.673 670.611 213.073 669.857 211.492C668.45 208.496 666.962 205.584 665.431 202.672H650.675V285.526H687.981C687.963 262.062 681.793 238.095 672.08 216.255L672.061 216.285ZM650.675 288.114V370.202C661.184 360.507 670.063 349.416 676.457 336.738C684.146 321.471 687.664 304.939 687.95 288.102L650.675 288.114ZM650.675 178.513V200.083H664.048C660.003 192.658 655.545 185.447 650.694 178.483L650.675 178.513ZM522.419 81.0867C521.435 80.7272 520.452 80.3617 519.462 80.0081C509.021 76.2976 498.352 73.212 487.516 70.7688L451.168 109.158L450.471 109.871L450.938 110.362H580.302C562.285 98.4272 542.862 88.5899 522.438 81.0567L522.419 81.0867ZM584.094 112.945H449.133L446.48 115.282V200.077H469.728H469.766H635.62V159.004C620.617 141.541 603.3 126.046 584.113 112.915L584.094 112.945Z" fill="#262C2A"/>
<path opacity="0.1" d="M71.8047 156.883V200.077H8.81604C8.81604 199.826 8.85962 199.568 8.8783 199.316C8.93433 198.627 8.99037 197.938 9.05263 197.255C9.12111 196.452 9.19583 195.643 9.27676 194.858C9.3577 194.074 9.44487 193.115 9.53826 192.246C9.63165 191.377 9.71881 190.496 9.82465 189.628C9.9305 188.759 10.0239 187.89 10.136 187.027C10.248 186.164 10.3476 185.29 10.4659 184.427C10.5593 183.708 10.6589 182.995 10.7586 182.276C10.9018 181.263 11.0512 180.244 11.2131 179.238C11.2131 179.088 11.2566 178.932 11.2815 178.788C12.4179 171.42 13.9663 164.115 15.9199 156.907L71.8047 156.883Z" fill="#094D35"/>
<path opacity="0.1" d="M8.61682 202.642H71.8047V285.526H13.2428C13.0871 286.377 12.9377 287.234 12.7758 288.09H71.8047V354.935C71.6989 354.905 71.6055 354.869 71.5058 354.833C69.8373 354.198 68.1811 353.527 66.525 352.808L65.4666 352.346C63.8063 351.591 62.1461 350.792 60.4858 349.949C59.9068 349.656 59.3277 349.35 58.755 349.039C49.5378 344.07 41.1646 337.774 33.9256 330.368C33.7139 330.171 33.5147 329.961 33.303 329.769C32.2944 328.715 31.3044 327.648 30.3456 326.558L29.2872 325.359C28.1541 324.023 27.0583 322.651 25.9936 321.261C25.838 321.057 25.6886 320.853 25.5267 320.662C21.1968 314.884 17.6016 308.628 14.8179 302.027C14.7308 301.83 14.6561 301.614 14.5751 301.428C13.7201 299.311 12.9626 297.174 12.3026 295.017C12.0162 294.112 11.7423 293.219 11.5057 292.279C11.4185 292.003 11.3438 291.733 11.2753 291.464C7.73895 278.18 7.32181 264.381 7.32181 250.678C7.32181 249.078 7.32181 247.472 7.32181 245.884C7.32181 240.342 7.39029 234.764 7.48991 229.191C7.48991 227.747 7.55217 226.309 7.5833 224.859C7.67046 221.18 7.79499 217.501 7.95686 213.822C7.99422 212.798 8.04403 211.779 8.10006 210.761C8.10006 210.173 8.13119 209.586 8.19345 208.999C8.34288 206.866 8.4674 204.751 8.61682 202.642Z" fill="#262C2A"/>
<path opacity="0.1" d="M134.401 125.396V200.077H86.8903V125.396H93.6642V100.111H121.47V125.396H134.401Z" fill="#094D35"/>
<path opacity="0.1" d="M134.401 202.636H86.8965V285.52H134.401V202.636Z" fill="#094D35"/>
<path opacity="0.1" d="M86.8903 288.09H134.401V356.996C128.797 358.546 123.086 359.713 117.311 360.489L115.891 360.657C115.194 360.735 114.503 360.801 113.818 360.867C113.133 360.932 112.423 360.98 111.732 361.022H111.514C111.215 361.022 110.892 361.058 110.599 361.064H110.281C109.908 361.064 109.534 361.1 109.161 361.112C108.632 361.142 108.102 361.148 107.561 361.154C107.33 361.154 107.112 361.154 106.882 361.154C106.347 361.154 105.817 361.154 105.282 361.154H104.105C103.788 361.154 103.483 361.154 103.153 361.154L101.951 361.112C101.328 361.112 100.656 361.046 100.009 361.004L98.8131 360.92L97.3251 360.789C96.2791 360.699 95.2394 360.585 94.2121 360.447L92.9669 360.279L92.3443 360.195C91.3046 360.04 90.2773 359.872 89.2313 359.68C88.4655 359.554 87.7059 359.399 86.9339 359.249L86.8903 288.09Z" fill="#094D35"/>
<path opacity="0.1" d="M431.388 116.576H392.214V200.071H431.388V116.576Z" fill="#094D35"/>
<path opacity="0.1" d="M431.395 202.636V285.526H236.95V249.773H340.52V270.864H392.214V202.636H431.395Z" fill="#094D35"/>
<path opacity="0.1" d="M432.011 376.96H431.388V431.336C424.374 430.765 417.38 429.988 410.407 429.005C379.013 424.582 348.409 415.987 319.469 403.468C311.114 399.849 302.929 395.898 294.914 391.616C281.526 384.478 268.699 376.406 256.537 367.463C253.482 365.211 250.467 362.906 247.49 360.549C245.43 358.913 243.381 357.235 241.308 355.606C239.87 354.485 238.419 353.383 236.95 352.328V288.09H391.698C391.592 287.707 391.486 287.324 391.374 286.946C391.492 287.324 391.604 287.707 391.71 288.09H431.388V376.924C431.6 376.93 431.806 376.948 432.011 376.96Z" fill="#094D35"/>
<path opacity="0.1" d="M533.557 110.356H508.031V102.723H519.474V79.9842C520.466 80.3317 521.454 80.6892 522.438 81.0567V102.723H533.557V110.356Z" fill="#094D35"/>
<path opacity="0.1" d="M595.058 200.077H469.741C469.741 200.077 469.741 200.077 469.784 200.107L469.728 200.077H446.48V116.582H453.067V178.297H483.17V141.747H508.037V112.921H533.564V141.771H558.43V178.321H595.058V200.077Z" fill="#094D35"/>
<path opacity="0.1" d="M446.48 202.636V285.526H595.058V202.636H446.48ZM635.39 383.096L635.596 317.486H595.058V288.126H446.48V432.229C458.662 432.721 470.862 432.581 483.027 431.809H483.239C489.05 431.458 494.834 430.946 500.591 430.275H500.721C531.435 426.835 561.467 419.123 589.878 407.381" fill="#094D35"/>
<path opacity="0.1" d="M653.315 288.09H687.975C687.67 304.921 684.159 321.453 676.476 336.72C670.082 349.404 661.197 360.495 650.7 370.184V317.456H653.315V288.09Z" fill="#094D35"/>
<path opacity="0.1" d="M687.994 285.526H653.315V216.255H672.08C681.793 238.095 687.963 262.062 687.994 285.526Z" fill="#094D35"/>
<path opacity="0.1" d="M431.395 139.788H410.407V165.966H431.395V139.788Z" fill="#094D35"/>
<path opacity="0.1" d="M431.395 194.05H410.407V200.077H431.395V194.05Z" fill="#094D35"/>
<path opacity="0.1" d="M431.395 202.636H410.407V220.222H431.395V202.636Z" fill="#094D35"/>
<path opacity="0.1" d="M431.395 248.311H410.407V274.489H431.395V248.311Z" fill="#094D35"/>
<path opacity="0.1" d="M431.395 302.573H410.407V328.751H431.395V302.573Z" fill="#094D35"/>
<path opacity="0.1" d="M431.388 376.924C431.6 376.924 431.806 376.924 432.011 376.96H431.388V383.042H410.407V356.834H431.388V376.924Z" fill="#094D35"/>
<path opacity="0.1" d="M431.388 411.083V431.306C424.374 430.734 417.38 429.958 410.407 428.975V411.083H431.388Z" fill="#094D35"/>
<path opacity="0.1" d="M326.897 283.603H236.95V285.526H326.897V283.603Z" fill="#094D35"/>
<path opacity="0.1" d="M326.897 288.084H236.95V295.454H326.897V288.084Z" fill="#094D35"/>
<path opacity="0.1" d="M326.897 319.613H236.95V331.465H326.897V319.613Z" fill="#094D35"/>
<path opacity="0.1" d="M326.891 355.624V367.475H256.537C253.482 365.23 250.464 362.926 247.484 360.561C245.423 358.925 243.381 357.247 241.302 355.624H326.891Z" fill="#094D35"/>
<path opacity="0.1" d="M326.891 391.628V403.468H319.463C311.116 399.845 302.933 395.892 294.914 391.61L326.891 391.628Z" fill="#094D35"/>
<path opacity="0.1" d="M500.74 210.671H483.033V227.711H500.74V210.671Z" fill="#094D35"/>
<path opacity="0.1" d="M117.354 131.274H99.6474V148.314H117.354V131.274Z" fill="#094D35"/>
<path opacity="0.1" d="M117.354 170.855H99.6474V187.896H117.354V170.855Z" fill="#094D35"/>
<path opacity="0.1" d="M117.354 210.437H99.6474V227.478H117.354V210.437Z" fill="#094D35"/>
<path opacity="0.1" d="M117.354 250.013H99.6474V267.053H117.354V250.013Z" fill="#094D35"/>
<path opacity="0.1" d="M117.354 289.594H99.6474V306.635H117.354V289.594Z" fill="#094D35"/>
<path opacity="0.1" d="M117.354 329.176H99.6474V346.217H117.354V329.176Z" fill="#094D35"/>
<path opacity="0.1" d="M568.336 210.671H550.629V227.711H568.336V210.671Z" fill="#094D35"/>
<path opacity="0.1" d="M500.74 252.703H483.033V269.744H500.74V252.703Z" fill="#094D35"/>
<path opacity="0.1" d="M568.336 252.703H550.629V269.744H568.336V252.703Z" fill="#094D35"/>
<path opacity="0.1" d="M500.74 294.729H483.033V311.77H500.74V294.729Z" fill="#094D35"/>
<path opacity="0.1" d="M568.336 294.729H550.629V311.77H568.336V294.729Z" fill="#094D35"/>
<path opacity="0.1" d="M500.74 336.762H483.033V353.802H500.74V336.762Z" fill="#094D35"/>
<path opacity="0.1" d="M568.336 336.762H550.629V353.802H568.336V336.762Z" fill="#094D35"/>
<path opacity="0.1" d="M500.74 378.794H483.033V395.834H500.74V378.794Z" fill="#094D35"/>
<path opacity="0.1" d="M568.336 378.794H550.629V395.834H568.336V378.794Z" fill="#094D35"/>
<path opacity="0.1" d="M483.033 431.809V420.82H500.734V430.245L483.033 431.809Z" fill="#094D35"/>
<path opacity="0.1" d="M11.2068 178.777V188.525H71.8047V178.777H11.2068ZM17.2461 187.914H12.3026V179.376H17.2834L17.2461 187.914ZM23.2791 187.914H18.2983V179.376H23.2791V187.914ZM29.2996 187.914H24.3188V179.376H29.2996V187.914ZM35.3326 187.914H30.358V179.376H35.3389L35.3326 187.914ZM41.3594 187.914H36.3786V179.376H41.3594V187.914ZM47.3924 187.914H42.4116V179.376H47.3924V187.914ZM53.4254 187.914H48.4446V179.376H53.4254V187.914ZM59.4522 187.914H54.4714V179.376H59.4522V187.914ZM65.479 187.914H60.4982V179.376H65.479V187.914ZM71.5058 187.914H66.525V179.376H71.5058V187.914Z" fill="#094D35"/>
<path opacity="0.1" d="M11.2068 207.142V216.89H71.8047V207.142H11.2068ZM17.2461 216.273H12.3026V207.759H17.2834L17.2461 216.273ZM23.2791 216.273H18.2983V207.759H23.2791V216.273ZM29.2996 216.273H24.3188V207.759H29.2996V216.273ZM35.3326 216.273H30.358V207.759H35.3389L35.3326 216.273ZM41.3594 216.273H36.3786V207.759H41.3594V216.273ZM47.3924 216.273H42.4116V207.759H47.3924V216.273ZM53.4254 216.273H48.4446V207.759H53.4254V216.273ZM59.4522 216.273H54.4714V207.759H59.4522V216.273ZM65.479 216.273H60.4982V207.759H65.479V216.273ZM71.5058 216.273H66.525V207.759H71.5058V216.273Z" fill="#262C2A"/>
<path opacity="0.1" d="M11.2068 235.519V245.285H71.8047V235.519H11.2068ZM17.2461 244.65H12.3026V236.13H17.2834L17.2461 244.65ZM23.2791 244.65H18.2983V236.13H23.2791V244.65ZM29.2996 244.65H24.3188V236.13H29.2996V244.65ZM35.3326 244.65H30.358V236.13H35.3389L35.3326 244.65ZM41.3594 244.65H36.3786V236.13H41.3594V244.65ZM47.3924 244.65H42.4116V236.13H47.3924V244.65ZM53.4254 244.65H48.4446V236.13H53.4254V244.65ZM59.4522 244.65H54.4714V236.13H59.4522V244.65ZM65.479 244.65H60.4982V236.13H65.479V244.65ZM71.5058 244.65H66.525V236.13H71.5058V244.65Z" fill="#094D35"/>
<path opacity="0.1" d="M11.2068 263.896V273.632H71.8047V263.896H11.2068ZM17.2461 273.027H12.3026V264.501H17.2834L17.2461 273.027ZM23.2791 273.027H18.2983V264.501H23.2791V273.027ZM29.2996 273.027H24.3188V264.501H29.2996V273.027ZM35.3326 273.027H30.358V264.501H35.3389L35.3326 273.027ZM41.3594 273.027H36.3786V264.501H41.3594V273.027ZM47.3924 273.027H42.4116V264.501H47.3924V273.027ZM53.4254 273.027H48.4446V264.501H53.4254V273.027ZM59.4522 273.027H54.4714V264.501H59.4522V273.027ZM65.479 273.027H60.4982V264.501H65.479V273.027ZM71.5058 273.027H66.525V264.501H71.5058V273.027Z" fill="#094D35"/>
<path opacity="0.1" d="M11.4683 292.267C11.7111 293.183 11.9851 294.1 12.2715 295.005V292.878H17.2523V301.398H14.5876C14.6685 301.596 14.7494 301.812 14.8304 301.997H71.8047V292.267H11.4683ZM23.2978 301.398H18.3169V292.878H23.2978V301.398ZM29.3183 301.398H24.3375V292.878H29.3183V301.398ZM35.3513 301.398H30.3581V292.878H35.3389L35.3513 301.398ZM41.3781 301.398H36.3973V292.878H41.3781V301.398ZM47.4111 301.398H42.4303V292.878H47.4111V301.398ZM53.4441 301.398H48.4633V292.878H53.4441V301.398ZM59.4709 301.398H54.4901V292.878H59.4709V301.398ZM65.4977 301.398H60.5169V292.878H65.4977V301.398ZM71.5245 301.398H66.5437V292.878H71.5245V301.398Z" fill="#094D35"/>
<path opacity="0.1" d="M25.5391 320.644C25.6948 320.835 25.8442 321.051 26.0061 321.243H29.2996V325.335C29.6545 325.743 30.0032 326.15 30.3643 326.534V321.219H35.3451V329.769H33.3279C33.5271 329.967 33.7201 330.177 33.9505 330.368H71.8234V320.644H25.5391ZM41.3594 329.769H36.3786V321.255H41.3594V329.769ZM47.3925 329.769H42.4116V321.255H47.3925V329.769ZM53.4255 329.769H48.4447V321.255H53.4255V329.769ZM59.4523 329.769H54.4714V321.255H59.4523V329.769ZM65.479 329.769H60.4982V321.255H65.479V329.769ZM71.5058 329.769H66.525V321.255H71.5058V329.769Z" fill="#094D35"/>
<path opacity="0.1" d="M58.7798 349.015C59.3464 349.326 59.9254 349.614 60.5107 349.926V349.626H65.4915V352.322L66.5499 352.796V349.626H71.5307V354.809C71.6263 354.855 71.7264 354.891 71.8296 354.917V349.015H58.7798Z" fill="#094D35"/>
<path opacity="0.1" d="M469.741 200.077H469.778H469.741ZM431.388 376.918H432.011H431.388ZM391.374 286.94C391.492 287.323 391.592 287.707 391.704 288.084C391.604 287.707 391.498 287.323 391.374 286.94ZM469.741 200.059H469.778H469.741ZM93.6891 110.339V112.897H121.501V110.339H93.6891ZM431.388 376.918H432.011H431.388ZM391.374 286.94C391.492 287.323 391.592 287.707 391.704 288.084C391.604 287.707 391.498 287.323 391.374 286.94ZM469.741 200.059H469.778H469.741ZM431.388 376.9H432.011H431.388ZM391.374 286.94C391.492 287.323 391.592 287.707 391.704 288.084C391.604 287.707 391.498 287.323 391.374 286.94Z" fill="#094D35"/>
<path d="M287.393 227.49C287.393 227.49 284.94 227.16 284.94 223.721C284.94 220.282 283.184 213.858 283.184 213.858C283.184 213.828 281.665 202.672 279.567 200.898C277.469 199.125 274.773 188.711 274.773 188.711C274.773 188.711 274.312 183.061 273.372 181.844C272.432 180.628 271.162 177.65 269.288 173.402C267.414 169.154 259.6 166.212 259.6 166.212C259.6 166.212 245.473 158.327 241.47 155.756C241.106 155.545 240.766 155.298 240.455 155.019C239.758 154.138 236.719 154.12 236.719 154.12C236.402 152.191 236.097 149.974 235.997 147.967C235.997 147.751 235.997 147.535 235.966 147.32C240.43 144.78 243.792 140.776 245.436 136.043C245.511 135.815 245.573 135.576 245.641 135.348C245.909 135.263 246.155 135.126 246.364 134.944C246.573 134.763 246.74 134.541 246.855 134.294C247.217 133.521 247.223 132.616 247.671 131.897C248.194 131.046 249.19 130.591 249.975 129.95C251.955 128.332 252.465 125.605 252.372 123.125C252.309 121.118 251.973 119.092 252.104 117.097L252.141 116.594C252.179 116.294 252.222 115.995 252.278 115.707C252.583 114.221 253.25 112.819 253.623 111.345C253.997 109.871 254.034 108.211 253.162 106.941C251.886 105.078 249.228 104.706 246.893 104.514C244.247 104.299 241.881 104.58 240.187 102.465C239.395 101.36 238.503 100.323 237.523 99.3675C237.174 99.056 233.787 97.0667 233.787 96.9349C230.481 95.4614 226.734 95.1849 223.234 96.1559C221.478 96.6473 219.822 97.4502 218.041 97.8516C214.2 98.7264 209.779 97.7797 206.517 99.8948C204.699 101.093 203.609 102.999 202.588 104.856C201.758 106.386 200.916 107.914 200.061 109.44C198.685 111.95 197.284 114.503 196.705 117.283C196.583 117.888 196.508 118.501 196.481 119.116V119.146C196.481 119.368 196.481 119.59 196.481 119.811V120.093C196.481 120.303 196.481 120.507 196.518 120.692C196.555 120.878 196.549 120.938 196.568 121.064C196.587 121.19 196.618 121.471 196.655 121.663C196.692 121.855 196.767 122.19 196.842 122.454C196.873 122.568 196.917 122.676 196.954 122.783C197.016 122.987 197.091 123.185 197.172 123.383C197.215 123.484 197.259 123.592 197.309 123.694C197.402 123.904 197.514 124.108 197.626 124.293C197.676 124.377 197.713 124.455 197.763 124.533C197.937 124.812 198.128 125.08 198.336 125.336C199.668 126.936 201.63 127.954 203.08 129.452C203.08 129.512 203.08 129.572 203.08 129.626C203.08 129.794 203.08 129.956 203.08 130.123C203.157 133.464 204.081 136.736 205.772 139.655C207.462 142.574 209.868 145.051 212.78 146.87C212.78 147.098 212.812 147.332 212.824 147.559C212.945 149.338 212.923 151.123 212.756 152.898C212.502 152.611 212.185 152.382 211.827 152.228C211.469 152.075 211.08 152.001 210.688 152.011C210.421 151.999 210.153 152.021 209.892 152.077L209.836 152.035V152.089C208.466 152.413 206.779 153.785 205.166 157.685C205.166 157.685 200.26 163.006 196.524 162.784C192.789 162.563 183.331 168.321 183.331 168.321C183.331 168.321 174.104 174.085 172.125 179.957C171.018 183.287 169.691 186.545 168.152 189.711L156.746 212.33L154.642 230.276C154.642 230.276 155.806 238.257 155.576 239.473C155.345 240.689 160.364 251.66 160.364 251.66C160.364 251.66 176.943 279.696 183.717 281.134L184.203 280.804C184.493 280.95 184.8 281.061 185.118 281.134L186.513 280.187C186.597 281.242 186.561 282.303 186.407 283.351C185.473 286.119 186.756 304.184 188.387 307.725C190.018 311.267 189.439 357.697 189.439 357.697L189.209 361.795C189.209 361.795 189.209 361.927 189.265 362.155L189.209 363.125L189.377 363.209C189.551 364.509 189.495 365.828 189.209 367.11C188.623 368.907 188.387 373.988 188.387 373.988C188.387 373.988 183.724 402.677 185.934 408.441C188.144 414.205 190.024 420.521 190.024 420.521C190.024 420.521 192.359 427.711 190.136 428.939C187.914 430.167 181.594 432.228 182.896 435.224C184.078 437.993 188.567 445.41 189.234 446.495L189.178 447.064L188.262 456.609C188.411 457.869 188.766 459.099 189.315 460.252C190.317 462.331 192.266 464.488 195.97 464.255C196.593 464.213 197.315 464.141 198.012 464.051C204.792 463.176 213.142 460.264 213.142 460.264C212.708 459.999 212.311 459.683 211.959 459.323C211.625 459.013 211.361 458.64 211.183 458.228C211.004 457.816 210.914 457.373 210.919 456.927C211.018 455.189 207.638 446.908 206.797 444.871C206.666 444.578 206.598 444.41 206.598 444.41C206.598 444.41 214.306 436.656 213.023 429.784C213.023 429.784 204.494 424.99 207.302 422.36C210.109 419.73 215.128 412.174 215.128 412.174C215.128 412.174 215.358 383.923 215.128 379.705C214.887 376.777 215.032 373.832 215.557 370.939C215.651 370.501 215.763 370.076 215.881 369.656C219.764 370.214 223.684 370.501 227.611 370.513C229.043 370.513 230.5 370.513 231.969 370.429C231.969 370.829 231.988 371.26 232.025 371.724C232.349 378.722 232.953 390.993 233.445 395.553C234.142 402.09 237.996 419.706 237.996 419.706C237.996 419.706 230.643 424.247 239.278 435.44C239.278 435.44 239.278 439.496 238.706 440.084C238.094 442.003 237.601 443.956 237.23 445.932C236.869 448.041 236.719 450.174 237.305 451.282C238.706 453.931 247.111 453.715 247.111 453.715L247.316 453.679C248.903 453.521 250.507 453.668 252.034 454.111C253.561 454.555 254.982 455.286 256.213 456.261C259.407 458.73 271.529 457.646 278.091 456.861C280.663 456.549 282.381 456.261 282.381 456.261C282.464 455.981 282.494 455.689 282.468 455.399C282.4 453.847 281.136 450.443 272.569 447.406C272.569 447.406 264.512 442.193 264.624 437.651H264.456H263.522C264.201 437.615 264.637 437.651 264.637 437.651C264.637 437.651 261.48 426.566 262.769 425.667C264.058 424.769 260.198 412.486 260.198 412.486C260.198 412.486 257.988 391.874 257.869 390.43C257.874 389.191 258.069 387.959 258.448 386.775L257.869 375.474C257.869 375.474 257.757 371.718 257.869 370.495C257.85 369.434 257.761 368.376 257.602 367.326C257.546 366.906 257.489 366.469 257.427 366.037C260.447 365.3 262.408 364.617 262.408 364.617L262.059 325.281C264.624 320.488 265.098 309.972 265.085 302.513C265.085 297.719 264.861 294.172 264.861 294.172L268.366 288.666C268.366 288.666 269.176 282.075 267.893 280.631C267.327 279.978 267.582 279.3 268.049 278.743C268.291 278.558 268.547 278.39 268.815 278.24C268.815 278.24 268.777 278.186 268.734 278.108C268.978 277.911 269.239 277.733 269.512 277.575C269.512 277.575 268.267 275.717 269.381 274.932C270.427 275.615 271.361 276.131 272.071 276.55C272.021 276.988 271.971 277.239 271.971 277.239L272.27 276.64C272.955 277.012 273.372 277.239 273.372 277.239C273.372 277.239 278.863 266.712 278.745 265.16C278.627 263.608 282.481 257.071 282.481 257.071C282.481 257.071 282.948 253.638 285.052 252.2C287.156 250.762 286.683 240.342 286.683 240.342C286.683 240.342 287.269 234.913 288.669 232.696C290.07 230.479 287.393 227.49 287.393 227.49ZM182.323 222.87L182.429 225.38C181.806 224.416 181.358 223.721 181.358 223.721L182.323 222.87Z" fill="url(#paint0_linear)"/>
<path d="M273.671 272.692L272.326 278.204C272.326 278.204 261.555 272.913 259.613 266.191C257.67 259.468 262.862 256.915 262.862 256.915L272.899 261.008L273.671 272.692Z" fill="white"/>
<path opacity="0.1" d="M273.671 272.692L272.326 278.204C272.326 278.204 261.555 272.913 259.613 266.191C257.67 259.468 262.862 256.915 262.862 256.915L272.899 261.008L273.671 272.692Z" fill="black"/>
<path d="M213.223 460.3C213.223 460.3 203.261 463.823 196.412 464.266C192.776 464.5 190.865 462.355 189.881 460.288C189.344 459.139 188.997 457.916 188.854 456.663L189.744 447.166L190.217 442.109L204.768 438.472L206.828 444.536L207.021 444.997C207.849 447.022 211.168 455.261 211.068 456.98C211.064 457.421 211.153 457.857 211.328 458.264C211.503 458.671 211.762 459.039 212.089 459.347C212.423 459.71 212.804 460.03 213.223 460.3Z" fill="white"/>
<path d="M281.267 455.471C281.292 455.759 281.262 456.049 281.179 456.327C281.179 456.327 259.874 459.749 255.516 456.327C254.287 455.328 252.855 454.587 251.311 454.151C249.767 453.716 248.145 453.596 246.55 453.799C246.55 453.799 238.307 454.015 236.931 451.402C236.358 450.306 236.508 448.179 236.863 446.081C237.225 444.116 237.707 442.174 238.307 440.263L238.637 440.012L240.598 438.496L263.56 437.843H263.734C263.622 442.361 271.529 447.543 271.529 447.543C279.928 450.539 281.167 453.925 281.267 455.471Z" fill="white"/>
<path opacity="0.1" d="M281.267 455.471C281.288 455.759 281.257 456.049 281.173 456.327C281.173 456.327 259.874 459.749 255.516 456.327C254.288 455.329 252.857 454.588 251.314 454.153C249.771 453.717 248.151 453.597 246.557 453.799C246.557 453.799 238.307 454.015 236.937 451.402C236.365 450.3 236.508 448.179 236.863 446.081C240.038 446.387 245.05 447.148 247.017 448.964C249.993 451.726 255.036 454.482 258.131 454.698C260.553 454.847 275.041 455.291 281.267 455.471Z" fill="black"/>
<path opacity="0.1" d="M213.223 460.3C213.223 460.3 203.261 463.823 196.412 464.266C192.776 464.5 190.865 462.355 189.887 460.282C192.421 461.103 195.939 461.966 197.788 461.175C199.98 460.24 207.75 459.635 212.108 459.377C212.44 459.727 212.814 460.037 213.223 460.3Z" fill="black"/>
<path d="M228.003 176.38C219.785 173.306 209.213 163.15 211.853 158.405C212.439 157.207 212.787 155.915 212.88 154.594C213.05 152.801 213.075 150.998 212.955 149.201C212.77 146.259 212.402 143.329 211.853 140.429C211.853 140.429 237.51 140.986 236.016 144.623C235.58 145.69 235.512 147.541 235.63 149.615C235.748 151.688 236.06 154.031 236.383 156.014C236.832 158.734 237.28 160.807 237.28 160.807C237.28 160.807 235.711 162.922 234.789 163.036C233.868 163.15 239.795 180.76 228.003 176.38Z" fill="#CF6F80"/>
<path opacity="0.1" d="M207.003 444.997L206.81 445.201C199.139 436.273 189.862 447.4 189.862 447.4L189.725 447.166L190.199 442.109L204.749 438.472L206.81 444.536L207.003 444.997Z" fill="black"/>
<path opacity="0.1" d="M263.74 438.472C263.74 438.472 258.137 438.358 255.148 440.899C252.16 443.439 237.716 441.45 238.338 440.899C238.523 440.625 238.634 440.313 238.662 439.988L240.623 438.472L263.585 437.819C263.672 438.22 263.74 438.472 263.74 438.472Z" fill="black"/>
<path d="M216.547 368.362C216.13 369.355 215.813 370.384 215.601 371.436C215.082 374.316 214.937 377.246 215.171 380.16C215.402 384.354 215.171 412.462 215.171 412.462C215.171 412.462 210.246 419.957 207.501 422.6C204.755 425.242 213.104 429.988 213.104 429.988C214.349 436.818 206.803 444.536 206.803 444.536C199.133 435.608 189.856 446.741 189.856 446.741C189.856 446.741 184.813 438.352 183.556 435.356C182.298 432.36 188.48 430.287 190.653 429.071C192.826 427.854 190.547 420.682 190.547 420.682C190.547 420.682 188.711 414.397 186.532 408.663C184.352 402.929 188.935 374.384 188.935 374.384C188.935 374.384 189.171 369.315 189.738 367.547C190.024 366.272 190.081 364.959 189.906 363.665C189.869 363.227 189.825 362.862 189.794 362.616C189.763 362.37 189.738 362.257 189.738 362.257L189.825 362.113L192.938 356.528C192.938 356.528 218.041 364.845 216.547 368.362Z" fill="#094D35"/>
<path d="M263.74 437.813C263.74 437.813 258.137 437.699 255.148 440.21C252.16 442.72 237.716 440.761 238.338 440.21C238.961 439.658 238.911 435.578 238.911 435.578C230.437 424.445 237.666 419.927 237.666 419.927C237.666 419.927 233.88 402.401 233.196 395.9C232.716 391.359 232.125 379.153 231.807 372.185C231.67 369.189 231.589 367.128 231.589 367.128L238.513 365.786L239.403 365.612L256.101 362.388C256.101 362.388 256.562 365.384 256.873 367.835C257.028 368.881 257.116 369.936 257.135 370.993C257.023 372.191 257.135 375.942 257.135 375.942L257.701 387.188C257.331 388.368 257.14 389.593 257.135 390.825C257.247 392.257 259.42 412.761 259.42 412.761C259.42 412.761 263.199 424.996 261.91 425.877C260.621 426.758 263.74 437.813 263.74 437.813Z" fill="#094D35"/>
<path opacity="0.1" d="M236.016 144.623C235.58 145.69 235.512 147.541 235.63 149.615C232.193 151.606 228.242 152.625 224.231 152.552C220.22 152.48 216.312 151.321 212.955 149.207C212.77 146.263 212.402 143.331 211.853 140.429C211.853 140.429 237.51 140.974 236.016 144.623Z" fill="black"/>
<path d="M245.934 131.382C245.939 133.541 245.586 135.687 244.888 137.739C243.328 142.337 240.13 146.256 235.857 148.804C231.585 151.351 226.515 152.364 221.542 151.662C216.57 150.96 212.015 148.589 208.684 144.968C205.352 141.346 203.458 136.708 203.336 131.873C203.336 131.705 203.336 131.549 203.336 131.382C203.287 128.66 203.802 125.956 204.851 123.428C205.9 120.9 207.462 118.598 209.444 116.657C211.427 114.716 213.792 113.174 216.401 112.122C219.009 111.069 221.809 110.527 224.638 110.527C227.466 110.527 230.267 111.069 232.875 112.122C235.484 113.174 237.848 114.716 239.831 116.657C241.814 118.598 243.376 120.9 244.424 123.428C245.473 125.956 245.989 128.66 245.94 131.382H245.934Z" fill="#CF6F80"/>
<path opacity="0.1" d="M228.003 176.38C219.785 173.306 209.213 163.15 211.853 158.404C212.439 157.207 212.787 155.914 212.88 154.594L224.13 163.491L231.091 168.986L236.383 156.02C236.832 158.74 237.28 160.813 237.28 160.813C237.28 160.813 235.711 162.928 234.789 163.042C233.868 163.156 239.795 180.76 228.003 176.38Z" fill="black"/>
<path d="M257.097 215.704L247.702 367.595L235.449 368.368L203.722 280.295L208.927 175.733L210.022 153.641L224.13 164.792L231.097 170.286L236.545 156.943L246.675 165.439L257.097 215.704Z" fill="#094D35"/>
<path opacity="0.1" d="M216.547 368.362C216.13 369.355 215.813 370.384 215.601 371.436C206.685 370.111 198.026 367.508 189.912 363.713L189.744 363.629L189.8 362.664L189.831 362.161L192.944 356.576C192.944 356.576 218.041 364.845 216.547 368.362Z" fill="black"/>
<path opacity="0.1" d="M238.656 371.46C236.377 371.833 234.078 372.085 231.77 372.215C231.633 369.219 231.552 367.158 231.552 367.158L238.475 365.816L238.656 371.46Z" fill="black"/>
<path opacity="0.1" d="M256.836 367.865C252.409 368.973 245.573 370.22 239.453 369.441L239.366 365.642L256.064 362.418C256.064 362.418 256.524 365.384 256.836 367.865Z" fill="black"/>
<path opacity="0.1" d="M239.341 370.136C213.814 374.33 190.435 362.305 190.435 362.305L190.659 358.23C190.659 358.23 191.238 312.04 189.632 308.498C188.026 304.957 186.774 287 187.683 284.244C188.592 281.488 184.365 240.156 184.365 240.156L183.68 223.379L158.614 213.607L169.821 191.126C171.335 187.974 172.636 184.731 173.718 181.419C175.667 175.583 184.714 169.849 184.714 169.849C184.714 169.849 193.99 164.121 197.657 164.336C201.325 164.552 206.131 159.267 206.131 159.267C209.68 150.561 212.892 154.504 212.892 154.504C212.892 154.917 212.892 154.504 212.718 155.792C211.473 165.349 232.853 195.548 233.158 196.081L235.194 243.811L237.255 304.214L239.341 370.136Z" fill="black"/>
<path d="M238.656 370.136C213.129 374.33 189.744 362.305 189.744 362.305L189.975 358.23C189.975 358.23 190.554 312.04 188.941 308.498C187.328 304.957 186.083 287 186.998 284.244C187.914 281.488 183.68 240.156 183.68 240.156L182.989 223.379L157.911 213.571L169.117 191.09C170.628 187.936 171.93 184.694 173.015 181.383C174.957 175.547 184.01 169.813 184.01 169.813C184.01 169.813 193.287 164.085 196.948 164.3C200.609 164.516 205.421 159.231 205.421 159.231C208.976 150.525 212.892 154.468 212.892 154.468C212.892 154.881 212.519 155.067 212.718 155.756C215.458 165.025 232.168 195.512 232.473 196.045L234.534 243.775L236.595 304.178L238.656 370.136Z" fill="white"/>
<path opacity="0.1" d="M231.776 197.405C229.03 196.302 214.486 180.322 214.486 180.322V176.685C213.957 175.487 210.813 176.218 208.26 177.057L209.356 154.965L210.601 155.96C213.328 165.223 231.459 196.872 231.776 197.405Z" fill="black"/>
<path d="M232.467 196.081C229.715 194.978 215.171 178.998 215.171 178.998V175.361C214.642 174.163 211.498 174.894 208.945 175.733L210.047 153.641L211.292 154.636C214.026 163.899 232.162 195.553 232.467 196.081Z" fill="white"/>
<path opacity="0.1" d="M190.435 275.777C190.778 275.777 208.186 274.016 208.186 274.016C208.186 274.016 218.726 293.962 218.035 298.816C217.344 303.669 216.093 307.965 211.853 307.204C207.613 306.443 189.034 307.803 189.034 307.803L190.435 275.777Z" fill="black"/>
<path d="M189.744 274.453C190.087 274.453 207.495 272.692 207.495 272.692C207.495 272.692 218.029 292.644 217.344 297.492C216.659 302.339 215.395 306.641 211.162 305.88C206.928 305.119 188.343 306.479 188.343 306.479L189.744 274.453Z" fill="white"/>
<path d="M202.862 265.088C202.862 265.088 218.838 273.351 219.181 275.873C219.523 278.396 211.05 274.771 209.219 274.333C208.014 274.054 206.788 273.87 205.552 273.782L193.343 274.1L202.862 265.088Z" fill="#CF6F80"/>
<path opacity="0.1" d="M227.318 198.436C228.247 198.436 228.999 197.711 228.999 196.818C228.999 195.924 228.247 195.2 227.318 195.2C226.39 195.2 225.637 195.924 225.637 196.818C225.637 197.711 226.39 198.436 227.318 198.436Z" fill="black"/>
<path d="M227.318 197.776C228.247 197.776 228.999 197.052 228.999 196.159C228.999 195.265 228.247 194.541 227.318 194.541C226.39 194.541 225.637 195.265 225.637 196.159C225.637 197.052 226.39 197.776 227.318 197.776Z" fill="#3F3D56"/>
<path opacity="0.1" d="M230.413 268.467C231.341 268.467 232.094 267.743 232.094 266.85C232.094 265.956 231.341 265.232 230.413 265.232C229.484 265.232 228.732 265.956 228.732 266.85C228.732 267.743 229.484 268.467 230.413 268.467Z" fill="black"/>
<path d="M230.413 267.802C231.341 267.802 232.094 267.078 232.094 266.184C232.094 265.291 231.341 264.567 230.413 264.567C229.484 264.567 228.732 265.291 228.732 266.184C228.732 267.078 229.484 267.802 230.413 267.802Z" fill="#3F3D56"/>
<path opacity="0.1" d="M228.993 233.451C229.921 233.451 230.674 232.727 230.674 231.834C230.674 230.94 229.921 230.216 228.993 230.216C228.065 230.216 227.312 230.94 227.312 231.834C227.312 232.727 228.065 233.451 228.993 233.451Z" fill="black"/>
<path d="M228.993 232.792C229.921 232.792 230.674 232.068 230.674 231.175C230.674 230.281 229.921 229.557 228.993 229.557C228.065 229.557 227.312 230.281 227.312 231.175C227.312 232.068 228.065 232.792 228.993 232.792Z" fill="#3F3D56"/>
<path d="M267.744 273.447C267.744 273.447 268.889 275.1 267.744 275.873C266.598 276.646 267.856 278.516 267.856 278.516C267.856 278.516 264.998 280.127 266.256 281.577C267.513 283.027 266.716 289.576 266.716 289.576L263.28 295.053C263.28 295.053 263.485 298.582 263.498 303.351C263.498 310.793 263.043 321.255 260.528 326.024L260.876 365.157C260.876 365.157 248.842 369.387 238.768 368.099L237.274 305.305C237.274 305.305 239.453 269.696 240.256 262.865C240.726 259.319 240.917 255.744 240.829 252.17C240.829 252.17 240.486 241.48 239.334 236.519C239.334 236.519 238.089 215.027 237.965 209.077C237.909 206.231 238.064 197.926 238.239 190.029C238.432 181.395 238.65 173.252 238.65 173.252L236.377 155.948C236.377 155.948 238.65 155.726 239.334 156.607C239.641 156.883 239.975 157.13 240.331 157.344C244.253 159.896 258.112 167.746 258.112 167.746C258.112 167.746 265.783 170.682 267.619 174.888C269.456 179.094 270.732 182.078 271.623 183.276C272.513 184.475 272.999 190.107 272.999 190.107C272.999 190.107 275.638 200.473 277.699 202.228C279.76 203.984 281.267 215.153 281.267 215.153L263.056 228.934C263.056 228.934 261.455 251.858 261.113 252.745C260.771 253.632 267.744 273.447 267.744 273.447Z" fill="white"/>
<path d="M268.435 273.447C268.435 273.447 269.574 275.1 268.435 275.873C267.295 276.646 268.541 278.516 268.541 278.516C268.541 278.516 265.702 280.145 266.947 281.595C268.192 283.045 267.407 289.594 267.407 289.594L263.971 295.071C263.971 295.071 264.176 298.6 264.195 303.369C264.195 310.811 263.74 321.273 261.225 326.042L261.567 365.175C261.567 365.175 249.514 369.405 239.453 368.117L237.965 305.323C237.965 305.323 240.144 269.714 240.947 262.883C241.417 259.337 241.607 255.762 241.513 252.188C241.513 252.188 241.171 241.498 240.025 236.537C240.025 236.537 238.78 215.045 238.65 209.095C238.593 206.249 238.755 197.944 238.923 190.047C239.116 181.413 239.334 173.27 239.334 173.27L236.333 155.732C236.333 155.732 239.334 155.732 240.025 156.625C240.329 156.904 240.663 157.151 241.022 157.362C244.944 159.914 258.809 167.764 258.809 167.764C258.809 167.764 266.474 170.7 268.31 174.906C270.147 179.112 271.423 182.096 272.32 183.294C273.216 184.493 273.69 190.125 273.69 190.125C273.69 190.125 276.329 200.491 278.39 202.246C280.451 204.002 281.939 215.147 281.939 215.147L263.728 228.928C263.728 228.928 262.128 251.852 261.779 252.739C261.431 253.626 268.435 273.447 268.435 273.447Z" fill="white"/>
<path opacity="0.1" d="M246.625 178.357L248.269 182.971L239.615 191.359C239.808 182.731 240.025 174.582 240.025 174.582L237.025 157.044C237.025 157.044 240.025 157.044 240.717 157.937C241.02 158.215 241.354 158.461 241.713 158.668L249.072 179.1L246.625 178.357Z" fill="black"/>
<path d="M245.934 177.033L247.584 181.647L238.93 190.035C239.123 181.401 239.341 173.258 239.341 173.258L236.333 155.72C236.333 155.72 239.341 155.72 240.025 156.613C240.331 156.89 240.665 157.137 241.022 157.35L248.387 177.776L245.934 177.033Z" fill="white"/>
<path opacity="0.1" d="M245.934 131.382C245.939 133.541 245.586 135.687 244.888 137.739C244.77 137.757 244.65 137.751 244.535 137.724C244.419 137.696 244.311 137.646 244.216 137.577C244.054 132.184 241.296 127.121 237.902 122.813C236.95 121.513 235.795 120.361 234.478 119.398C233.147 118.436 231.491 117.985 229.833 118.134C227.966 118.379 226.316 119.602 224.429 119.758C221.939 119.955 219.71 118.296 217.238 118.212C216.233 118.221 215.242 118.436 214.331 118.843C213.419 119.25 212.608 119.84 211.952 120.572C210.654 122.051 209.689 123.773 209.119 125.629C208.141 128.445 207.607 131.386 207.538 134.354C207.507 136.031 207.339 138.134 205.72 138.745C205.842 137.512 205.696 136.267 205.292 135.09C204.888 133.913 204.235 132.83 203.373 131.909L203.336 131.873C203.336 131.705 203.336 131.549 203.336 131.382C203.287 128.66 203.802 125.956 204.851 123.428C205.9 120.9 207.462 118.598 209.444 116.657C211.427 114.716 213.792 113.174 216.401 112.122C219.009 111.069 221.809 110.527 224.638 110.527C227.466 110.527 230.267 111.069 232.875 112.122C235.484 113.174 237.848 114.716 239.831 116.657C241.814 118.598 243.376 120.9 244.424 123.428C245.473 125.956 245.989 128.66 245.94 131.382H245.934Z" fill="black"/>
<path d="M233.457 98.8283C230.222 97.3637 226.542 97.0867 223.109 98.0494C221.385 98.5407 219.76 99.3376 218.01 99.739C214.275 100.608 209.916 99.6671 206.71 101.77C204.929 102.969 203.859 104.862 202.862 106.701L200.372 111.267C199.015 113.766 197.645 116.306 197.078 119.057C196.512 121.807 196.854 124.887 198.666 127.097C199.986 128.709 201.935 129.722 203.367 131.238C204.225 132.16 204.875 133.243 205.278 134.418C205.681 135.593 205.827 136.836 205.708 138.068C207.333 137.469 207.488 135.36 207.526 133.682C207.595 130.715 208.128 127.774 209.107 124.958C209.675 123.101 210.64 121.379 211.94 119.901C212.596 119.169 213.407 118.58 214.319 118.173C215.23 117.766 216.221 117.551 217.226 117.541C219.716 117.624 221.951 119.278 224.417 119.08C226.285 118.931 227.941 117.702 229.821 117.463C231.479 117.312 233.136 117.763 234.466 118.727C235.782 119.688 236.935 120.84 237.884 122.142C241.283 126.45 244.041 131.501 244.203 136.906C244.907 137.403 245.922 136.756 246.27 135.989C246.619 135.222 246.631 134.324 247.073 133.593C247.584 132.748 248.561 132.298 249.327 131.663C251.27 130.051 251.755 127.337 251.681 124.875C251.606 122.412 251.108 119.913 251.593 117.493C251.886 116.007 252.546 114.617 252.907 113.149C253.268 111.681 253.312 110.033 252.459 108.769C251.214 106.911 248.592 106.546 246.308 106.372C243.711 106.156 241.389 106.432 239.733 104.329C238.955 103.231 238.081 102.201 237.118 101.249C236.788 100.937 233.457 98.9601 233.457 98.8283Z" fill="#512E4E"/>
<path opacity="0.1" d="M165.786 225.183L159.28 213.607L157.219 231.468C157.219 231.468 158.365 239.401 158.135 240.618C157.904 241.834 162.829 252.739 162.829 252.739C162.829 252.739 179.098 280.625 185.741 282.063L208.186 266.628L202.234 259.354C202.234 259.354 200.173 258.581 199.656 259.354C199.656 259.354 188.605 241.055 187.459 239.731C186.314 238.407 186.538 235.764 186.538 235.764C186.538 235.764 184.819 234.003 185.392 232.349C185.965 230.695 182.074 224.961 182.074 224.961L185.623 221.767L165.786 225.183Z" fill="black"/>
<path d="M159.623 212.289L157.904 213.607L155.843 231.468C155.843 231.468 156.989 239.401 156.759 240.618C156.528 241.834 161.459 252.739 161.459 252.739C161.459 252.739 177.722 280.625 184.365 282.063L206.816 266.628L200.858 259.354C200.858 259.354 198.797 258.581 198.28 259.354C198.28 259.354 187.229 241.055 186.083 239.731C184.938 238.407 185.168 235.764 185.168 235.764C185.168 235.764 183.45 234.003 184.022 232.349C184.595 230.695 180.698 224.961 180.698 224.961L184.247 221.768L159.623 212.289Z" fill="white"/>
<path opacity="0.1" d="M266.256 282.26C267.501 283.716 266.716 290.253 266.716 290.253L263.28 295.73C263.28 295.73 263.485 299.265 263.498 304.029L257.72 305.766C257.198 305.923 256.644 305.958 256.105 305.867C255.566 305.776 255.058 305.562 254.622 305.244C254.187 304.926 253.836 304.512 253.601 304.036C253.365 303.561 253.251 303.039 253.268 302.513L254.264 271.589L267.744 276.55C266.598 277.317 267.856 279.199 267.856 279.199C267.856 279.199 264.998 280.804 266.256 282.26Z" fill="black"/>
<path d="M266.947 281.595C268.192 283.051 267.407 289.594 267.407 289.594L263.971 295.071C263.971 295.071 264.176 298.6 264.195 303.369L258.311 305.137C257.8 305.29 257.258 305.323 256.731 305.234C256.203 305.144 255.706 304.935 255.279 304.623C254.853 304.311 254.51 303.906 254.279 303.441C254.049 302.976 253.937 302.465 253.953 301.949L254.955 270.93L268.441 275.891C267.289 276.658 268.547 278.534 268.547 278.534C268.547 278.534 265.702 280.145 266.947 281.595Z" fill="white"/>
<path d="M271.411 266.856C271.411 266.856 270.496 272.482 268.204 272.811C265.913 273.141 264.886 281.913 262.601 281.601C260.316 281.29 261.829 273.447 261.91 271.925C261.991 270.403 259.42 264.099 261.343 262.667C263.267 261.235 269.356 262.667 269.356 262.667L271.411 266.856Z" fill="#CF6F80"/>
<path opacity="0.1" d="M276.286 223.529L280.607 215.141C280.607 215.141 282.325 221.534 282.325 224.949C282.325 228.364 284.728 228.7 284.728 228.7C284.728 228.7 287.362 231.696 285.973 233.877C284.585 236.058 284.025 241.486 284.025 241.486C284.025 241.486 284.479 251.846 282.418 253.278C280.358 254.71 279.928 258.132 279.928 258.132C279.928 258.132 276.143 264.633 276.261 266.179C276.379 267.724 270.994 278.192 270.994 278.192C270.994 278.192 273.627 265.184 258.28 259.564C258.28 259.564 258.162 255.148 259.307 253.937C260.453 252.727 262.24 252.176 261.119 246.058C259.999 239.941 260.795 232.631 260.795 231.163C260.795 229.695 264.232 220.539 264.232 220.539L276.286 223.529Z" fill="black"/>
<path d="M278.154 213.942L281.927 215.141C281.927 215.141 283.651 221.534 283.651 224.949C283.651 228.364 286.054 228.7 286.054 228.7C286.054 228.7 288.688 231.696 287.3 233.877C285.911 236.058 285.357 241.486 285.357 241.486C285.357 241.486 285.812 251.846 283.751 253.278C281.69 254.71 281.229 258.132 281.229 258.132C281.229 258.132 277.45 264.633 277.568 266.179C277.687 267.724 272.295 278.192 272.295 278.192C272.295 278.192 274.935 265.184 259.581 259.564C259.581 259.564 259.469 255.148 260.615 253.937C261.761 252.727 263.547 252.176 262.427 246.058C261.306 239.941 262.103 232.631 262.103 231.163C262.103 229.695 265.54 220.539 265.54 220.539L278.154 213.942Z" fill="white"/>
<path opacity="0.1" d="M194.818 431.366C194.818 431.366 200.833 427.729 204.78 430.371C208.727 433.013 194.818 431.366 194.818 431.366Z" fill="black"/>
<path opacity="0.1" d="M241.551 420.119C241.551 420.119 246.874 419.46 251.344 424.092C255.815 428.723 241.551 420.119 241.551 420.119Z" fill="black"/>
<g opacity="0.1">
<path opacity="0.1" d="M249.34 130.351C248.574 130.986 247.59 131.441 247.08 132.286C246.644 133.011 246.631 133.904 246.283 134.683C245.934 135.462 244.919 136.097 244.216 135.606C244.054 130.213 241.289 125.15 237.896 120.836C236.947 119.534 235.794 118.382 234.478 117.421C233.146 116.457 231.487 116.006 229.827 116.156C227.959 116.402 226.316 117.624 224.429 117.774C221.939 117.978 219.704 116.318 217.232 116.234C216.228 116.244 215.237 116.46 214.326 116.868C213.416 117.277 212.606 117.867 211.952 118.601C210.653 120.076 209.688 121.797 209.119 123.652C208.141 126.468 207.608 129.408 207.538 132.376C207.501 134.048 207.339 136.133 205.733 136.756C205.77 137.199 205.77 137.644 205.733 138.086C207.351 137.487 207.513 135.378 207.551 133.7C207.62 130.732 208.153 127.792 209.132 124.976C209.7 123.119 210.665 121.397 211.965 119.919C212.62 119.188 213.43 118.598 214.34 118.191C215.251 117.784 216.241 117.569 217.244 117.559C219.735 117.642 221.976 119.296 224.442 119.098C226.31 118.949 227.966 117.72 229.84 117.481C231.499 117.33 233.158 117.781 234.491 118.745C235.807 119.706 236.96 120.858 237.909 122.16C241.302 126.468 244.066 131.519 244.228 136.924C244.932 137.421 245.946 136.774 246.295 136.007C246.644 135.24 246.656 134.342 247.092 133.611C247.602 132.766 248.586 132.316 249.352 131.681C251.295 130.069 251.78 127.355 251.705 124.892C251.705 124.815 251.705 124.737 251.705 124.665C251.587 126.798 250.996 128.973 249.34 130.351Z" fill="black"/>
<path opacity="0.1" d="M203.379 129.926C201.947 128.41 199.992 127.397 198.678 125.791C197.572 124.37 196.941 122.659 196.867 120.884C196.671 123.102 197.314 125.312 198.678 127.109C199.992 128.721 201.947 129.734 203.379 131.25C204.754 132.733 205.579 134.612 205.726 136.594C205.822 135.388 205.663 134.176 205.26 133.03C204.856 131.884 204.217 130.828 203.379 129.926Z" fill="black"/>
<path opacity="0.1" d="M252.92 111.836C252.552 113.304 251.898 114.7 251.6 116.18C251.423 117.169 251.358 118.174 251.407 119.176C251.427 118.605 251.492 118.037 251.6 117.475C251.898 115.989 252.552 114.599 252.92 113.131C253.134 112.321 253.203 111.482 253.125 110.65C253.086 111.05 253.018 111.446 252.92 111.836Z" fill="black"/>
</g>
<path opacity="0.1" d="M82.6379 455.728C116.143 455.728 143.304 451.53 143.304 446.351C143.304 441.172 116.143 436.974 82.6379 436.974C49.1329 436.974 21.9716 441.172 21.9716 446.351C21.9716 451.53 49.1329 455.728 82.6379 455.728Z" fill="#094D35"/>
<path d="M84.5929 266.718H80.6892V351.304H84.5929V266.718Z" fill="#535461"/>
<path d="M109.123 351.046L108.881 354.857L108.532 360.249L108.389 362.49L108.046 367.883L107.897 370.124L107.548 375.516L103.613 436.674C103.442 439.306 102.236 441.776 100.24 443.581C98.2431 445.387 95.6069 446.392 92.8673 446.393H72.4086C69.6697 446.392 67.0341 445.386 65.0387 443.581C63.0434 441.775 61.8382 439.305 61.6687 436.674L57.7525 375.474L57.4039 370.082L57.2607 367.841L56.912 362.448L56.7688 360.207L56.4202 354.815L56.1711 351.004C56.1279 350.271 56.2408 349.536 56.503 348.846C56.7651 348.156 57.171 347.525 57.6957 346.992C58.2204 346.458 58.8529 346.033 59.5543 345.744C60.2557 345.454 61.0112 345.305 61.7746 345.306H103.62C104.38 345.312 105.131 345.468 105.826 345.765C106.522 346.061 107.147 346.492 107.662 347.03C108.178 347.568 108.574 348.201 108.825 348.892C109.076 349.583 109.178 350.316 109.123 351.046Z" fill="#3F3D56"/>
<path d="M108.881 354.857L108.532 360.231H56.7439L56.3953 354.857H108.881Z" fill="#9D9CB5"/>
<path d="M108.389 362.472L108.046 367.853H57.2358L56.8871 362.472H108.389Z" fill="#9D9CB5"/>
<path d="M107.897 370.1L107.554 375.474H57.7277L57.379 370.1H107.897Z" fill="#9D9CB5"/>
<path d="M50.437 298.42C73.1682 314.25 82.6566 339.008 82.6566 339.008C82.6566 339.008 55.2622 338.104 32.5247 322.273C9.78731 306.443 0.317535 281.691 0.317535 281.691C0.317535 281.691 27.6996 282.59 50.437 298.42Z" fill="#094D35"/>
<path d="M0.298859 281.691C0.298859 281.691 28.7393 296.88 37.8604 309.457C46.9815 322.034 82.6566 339.008 82.6566 339.008" stroke="#535461" stroke-width="2" stroke-miterlimit="10"/>
<path d="M65.1117 266.532C77.4828 275.142 82.6566 288.618 82.6566 288.618C82.6566 288.618 67.7453 288.126 55.368 279.516C42.9907 270.906 37.8293 257.425 37.8293 257.425C37.8293 257.425 52.7344 257.916 65.1117 266.532Z" fill="#094D35"/>
<path d="M37.8293 257.425C37.8293 257.425 53.3072 265.693 58.2693 272.536C63.2314 279.378 82.6566 288.618 82.6566 288.618" stroke="#535461" stroke-width="2" stroke-miterlimit="10"/>
<path d="M100.619 287.935C86.4047 302.968 83.3975 322.615 83.3975 322.615C83.3975 322.615 103.439 317.882 117.641 302.842C131.842 287.803 134.862 268.162 134.862 268.162C134.862 268.162 114.833 272.901 100.619 287.935Z" fill="#094D35"/>
<path d="M134.874 268.168C134.874 268.168 116.358 283.579 111.651 294.196C106.944 304.813 83.3975 322.615 83.3975 322.615" stroke="#535461" stroke-width="2" stroke-miterlimit="10"/>
<path d="M622.396 282.644C622.396 282.644 612.117 233.428 616.052 227.304C616.052 227.304 616.195 221.612 615.959 214.356C615.959 214.08 615.959 213.804 615.959 213.523C616.651 213.967 617.373 214.367 618.119 214.721C621.745 216.514 625.907 217.031 629.886 216.183L626.773 212.846C626.026 212.049 625.248 211.186 625.086 210.132C624.924 209.077 625.372 208.136 625.759 207.196C628.716 200.005 628.872 190.964 623.175 185.475C618.362 180.862 617.191 174.906 611.968 170.694C608.151 167.608 606.053 163.084 604.073 158.71C602.398 155.013 600.711 151.286 599.752 147.368C599.005 144.306 598.706 141.136 597.679 138.146C596.652 135.156 594.728 132.25 591.721 130.914C590.65 130.441 589.461 130.171 588.483 129.542C587.201 128.709 586.429 127.355 585.501 126.169C580.788 120.177 565.005 123.706 557.534 126.139C555.503 126.751 553.622 127.754 552.005 129.087L552.074 128.979C552.13 128.889 552.198 128.799 552.26 128.709C551.442 129.346 550.736 130.104 550.168 130.956C549.079 132.616 548.624 134.551 547.715 136.349C546.62 138.476 540.524 144.414 543.145 146.804C543.329 146.965 543.54 147.095 543.768 147.188C544.752 147.582 545.835 147.686 546.881 147.488L546.769 147.745C545.874 149.854 545.415 152.112 545.418 154.39C545.418 164.235 553.854 172.216 564.27 172.216C566.228 172.217 568.175 171.928 570.042 171.359C570.085 171.586 570.123 171.814 570.166 172.042C570.166 172.132 570.197 172.222 570.21 172.311L569.88 172.755C569.863 172.727 569.845 172.701 569.824 172.677L560.049 185.823C558.555 186.836 549.95 192.827 549.465 197.321C548.954 202.24 548.444 207.998 548.444 207.998L548.375 209.233C547.948 209.576 547.448 209.827 546.911 209.966C546.374 210.106 545.811 210.132 545.262 210.042C542.211 209.562 542.211 220.827 542.211 220.827C542.211 220.827 540.182 222.624 538.787 221.066C537.393 219.509 533.707 224.787 533.707 224.787L510.608 225.746L510.079 225.776L508.834 222.067C508.7 221.676 508.411 221.351 508.03 221.164C507.648 220.977 507.206 220.942 506.798 221.066C506.701 221.097 506.608 221.135 506.518 221.18L506.431 221.228L506.269 221.336L506.188 221.408C506.143 221.447 506.101 221.489 506.063 221.534L505.988 221.618L505.951 221.654C505.807 221.845 505.712 222.066 505.673 222.299C505.634 222.532 505.653 222.771 505.727 222.996L506.798 226.177C502.34 227.04 497.783 229.473 501.499 236.172L482.66 232.822L488.755 237.748L520.221 243.997C519.804 244.716 520.078 245.759 521.379 247.227C526.983 253.56 537.193 255.28 541.302 255.723C542.388 258.059 543.743 260.27 545.343 262.314L544.988 268.623C544.988 268.623 534.585 316.713 532.679 319.152C533.641 318.103 534.521 316.988 535.313 315.814C532.293 325.695 528.072 339.218 526.964 341.244C525.183 344.479 523.533 357.571 525.563 358.41C526.186 358.668 527.966 358.542 530.507 358.356V359.441L530.394 400.538C530.394 400.538 530.905 425.746 529.504 428.148C528.103 430.551 527.73 435.59 527.73 435.59C527.73 435.59 522.126 445.53 517.687 449.527C517.657 449.558 517.624 449.586 517.588 449.611L517.451 448.676C517.451 448.676 512.115 455.159 500.31 454.794C500.31 454.794 493.206 459.24 503.741 459.479C514.275 459.719 527.73 459.12 527.73 459.12C527.73 459.12 537.125 445.339 544.995 447.136V457.58H547.404V446.968C548.521 446.26 549.478 445.341 550.215 444.267C550.952 443.193 551.456 441.986 551.694 440.719C551.9 439.413 551.749 438.078 551.255 436.846C550.762 435.613 549.943 434.526 548.88 433.691C548.402 433.275 548.019 432.769 547.754 432.204C547.489 431.639 547.349 431.027 547.342 430.407L547.255 430.479C547.255 430.269 547.199 430.054 547.174 429.832C546.483 424.439 545.617 413.313 548.674 405.08C552.864 393.791 554.134 378.069 551.084 368.71C550.099 365.718 549.291 362.675 548.662 359.596C548.587 359.207 548.518 358.835 548.456 358.488C550.542 358.759 552.607 359.16 554.639 359.686C561.705 361.562 577.164 361.909 590.364 361.807C590.395 362.155 590.432 362.52 590.476 362.886C590.711 365.426 591.203 367.939 591.945 370.387C593.601 375.181 594.361 396.314 594.361 396.314C594.361 396.314 596.496 413.69 595.332 420.76C594.709 424.691 594.087 428.64 593.732 432.606V432.684C593.732 432.684 590.233 442.271 587.674 447.478C587.612 447.609 587.543 447.741 587.481 447.867C586.799 447.927 586.127 448.07 585.482 448.293C585.482 448.293 582.052 454.884 578.634 455.974C575.216 457.065 576.349 460.654 584.088 459.335C591.827 458.017 603.513 456.939 603.513 456.939L604.017 450.216L606.396 447.352L605.773 454.057L608.307 453.577L607.971 445.423L611.862 440.737C611.862 440.737 616.563 436.71 609.577 428.789V428.963C609.502 428.849 609.434 428.729 609.353 428.616V428.58C608.195 426.854 607.273 423.636 608.961 417.926C612.011 407.608 613.786 398.243 613.786 398.243C613.786 398.243 620.597 373.156 612.41 361.286H612.771C611.932 359.616 611.339 357.841 611.009 356.013C610.968 355.798 610.93 355.576 610.897 355.348C616.955 355.013 622.901 353.958 627.751 351.681C627.732 351.657 624.812 292.123 622.396 282.644ZM545.486 241.121V241.241L544.241 241.301L545.486 241.121ZM541.215 241.69C541.011 241.734 540.819 241.822 540.655 241.948C540.12 242.677 539.783 243.524 539.677 244.41L537.735 243.991C537.735 243.991 536.371 243.709 534.41 243.392L533.483 242.493C536.035 242.289 538.688 241.99 541.215 241.69Z" fill="url(#paint1_linear)"/>
<path d="M605.487 445.506L604.746 453.997L607.23 453.517L606.856 444.308L605.487 445.506Z" fill="#1D2366"/>
<path d="M548.811 405.194C545.816 413.402 546.663 424.481 547.336 429.862C547.585 431.851 547.815 433.061 547.815 433.061C547.815 433.061 543.338 442.876 542.965 443.247C542.591 443.619 529.791 451.139 529.791 451.139L520.844 456.166C520.844 456.166 511.766 452.337 516.118 451.019C517.007 450.675 517.808 450.15 518.465 449.479C522.824 445.494 528.296 435.59 528.296 435.59C528.296 435.59 528.67 430.563 530.04 428.172C531.409 425.781 530.911 400.658 530.911 400.658L531.017 359.704V354.365L548.045 354.485C548.153 356.298 548.398 358.1 548.78 359.878C549.391 362.947 550.183 365.979 551.152 368.961C554.153 378.303 552.908 393.947 548.811 405.194Z" fill="#FFB0B1"/>
<path opacity="0.1" d="M547.815 433.061C547.815 433.061 543.338 442.876 542.965 443.247C542.591 443.619 529.791 451.139 529.791 451.139L520.844 456.166C520.844 456.166 511.766 452.337 516.118 451.019C517.007 450.675 517.808 450.15 518.465 449.479L518.851 452.097L521.834 451.977L547.361 429.874C547.585 431.851 547.815 433.061 547.815 433.061Z" fill="black"/>
<path d="M547.504 430.431L521.834 452.684L518.851 452.804L518.229 448.61C518.229 448.61 513.011 455.069 501.419 454.71C501.419 454.71 494.458 459.138 504.774 459.377C515.091 459.617 528.265 459.018 528.265 459.018C528.265 459.018 537.467 445.237 545.169 447.034V457.442H547.535V446.938C548.635 446.226 549.574 445.306 550.295 444.235C551.016 443.164 551.504 441.964 551.731 440.707C551.936 439.412 551.791 438.087 551.31 436.862C550.829 435.636 550.029 434.55 548.985 433.708C548.519 433.288 548.148 432.781 547.893 432.217C547.638 431.653 547.506 431.046 547.504 430.431Z" fill="#1D2366"/>
<path d="M607.852 417.992C606.196 423.684 607.099 426.89 608.232 428.609V428.645C609.685 430.769 610.696 433.143 611.208 435.638L611.308 436.177L599.628 452.565L593.29 454.961C593.29 454.961 583.098 451.612 584.959 450.653C585.426 450.419 586.155 449.173 586.989 447.454C589.479 442.271 592.916 432.708 592.916 432.708V432.63C593.277 428.681 593.85 424.745 594.485 420.826C595.624 413.774 593.532 396.464 593.532 396.464C593.532 396.464 592.785 375.415 591.167 370.627C590.436 368.193 589.95 365.697 589.716 363.173C589.38 360.177 589.305 357.709 589.305 357.709C589.305 357.709 596.017 348.721 608.319 358.428C609.303 359.202 610.169 360.106 610.891 361.112C619.389 372.748 612.547 398.381 612.547 398.381C612.547 398.381 610.835 407.704 607.852 417.992Z" fill="#FFB0B1"/>
<path opacity="0.1" d="M611.327 436.177L599.647 452.565L593.308 454.961C593.308 454.961 583.116 451.612 584.978 450.653C585.445 450.42 586.173 449.173 587.008 447.454C591.322 447.418 593.558 451.372 593.558 451.372L599.024 450.533C599.024 450.533 606.234 436.896 607.852 436.063C609.471 435.23 608.102 429.838 608.102 429.838V428.466C608.145 428.514 608.182 428.568 608.232 428.615V428.651C609.686 430.775 610.696 433.15 611.208 435.644L611.327 436.177Z" fill="black"/>
<path d="M593.931 451.726C593.931 451.726 590.818 446.225 584.854 448.256C584.854 448.256 581.498 454.847 578.142 455.914C574.786 456.98 575.907 460.576 583.49 459.263C591.073 457.951 602.504 456.867 602.504 456.867L603.002 450.162L610.71 440.713C610.71 440.713 615.305 436.704 608.469 428.813V430.185C608.469 430.185 609.839 435.578 608.22 436.411C606.601 437.244 599.416 450.887 599.416 450.887L593.931 451.726Z" fill="#1D2366"/>
<path opacity="0.1" d="M548.064 354.473C548.171 356.286 548.417 358.088 548.799 359.866C541.788 358.877 535.282 359.369 531.017 359.692V354.353L548.064 354.473Z" fill="black"/>
<path opacity="0.1" d="M611.582 362.604C611.582 362.604 601.62 363.071 589.741 363.167C589.405 360.171 589.33 357.703 589.33 357.703C589.33 357.703 596.042 348.715 608.344 358.422C609.328 359.196 610.194 360.1 610.916 361.106C611.109 361.617 611.331 362.117 611.582 362.604Z" fill="black"/>
<path d="M611.582 361.526C611.582 361.526 567.95 363.557 554.651 359.968C541.352 356.379 528.172 359.488 526.186 358.656C524.2 357.823 525.812 344.779 527.555 341.549C529.299 338.319 538.862 305.658 538.862 305.658L548.064 259.486L557.758 256.915L558.443 256.729L575.334 252.248L587.711 248.958C587.711 248.958 612.323 341.429 610.212 348.248C609.445 350.859 609.322 353.606 609.851 356.271C610.173 358.091 610.756 359.859 611.582 361.526Z" fill="#1D2366"/>
<path d="M515.988 227.909C515.988 227.909 507.271 236.897 513.871 241.906C520.47 246.915 524.81 242.385 524.81 242.385L515.988 227.909Z" fill="#C7DAF5"/>
<path opacity="0.1" d="M515.988 227.909C515.988 227.909 507.271 236.897 513.871 241.906C520.47 246.915 524.81 242.385 524.81 242.385L515.988 227.909Z" fill="black"/>
<path d="M586.41 168.818C586.41 168.818 585.389 169.753 583.851 171.131C581.66 173.102 578.416 175.984 575.539 178.399C571.555 181.736 568.267 184.187 569.444 182.096C570.621 180.005 570.397 176.362 569.811 172.953C569.768 172.725 569.731 172.497 569.687 172.275C569.202 169.772 568.56 167.298 567.763 164.87C567.763 164.87 574.201 156.865 577.762 153.707C579.088 152.509 580.016 152.017 580.072 152.85C580.134 153.971 581.006 156.445 582.089 159.07C582.12 159.153 582.151 159.231 582.189 159.315C582.911 161.113 583.727 162.958 584.443 164.552C585.538 166.997 586.41 168.818 586.41 168.818Z" fill="#FFB0B1"/>
<path opacity="0.1" d="M582.189 159.315C581.584 162.447 580.116 165.364 577.939 167.763C575.761 170.162 572.955 171.954 569.811 172.953C569.316 170.217 568.632 167.517 567.763 164.87C567.763 164.87 579.885 149.8 580.072 152.85C580.116 154.007 581.062 156.571 582.189 159.315Z" fill="black"/>
<path opacity="0.1" d="M568.604 176.979L570.173 174.852C570.173 174.852 571.212 180.952 575.035 178.261C578.858 175.571 579.045 198.507 579.045 198.507L574.942 257.544L545.293 255.837L546.134 227.31L549.49 212.93L557.789 192.024L562.726 185.116L568.604 176.979Z" fill="black"/>
<path d="M579.045 198.873L575.309 252.254L574.917 257.91L558.387 256.957L557.764 256.921L545.312 256.202L546.153 227.669L549.508 213.289L557.808 192.384L562.745 185.475L568.622 177.309L570.191 175.187C570.191 175.187 571.231 181.287 575.054 178.597L575.135 178.543C578.87 176.266 579.045 198.873 579.045 198.873Z" fill="#1D2366"/>
<path d="M549.926 208.292C549.926 208.292 548.438 211.288 545.449 210.803C542.461 210.317 542.467 221.588 542.467 221.588C542.467 221.588 540.481 223.385 539.111 221.827C537.741 220.27 534.13 225.536 534.13 225.536L511.505 226.495C511.505 226.495 521.572 230.923 519.599 244.321C519.599 244.321 553.779 242.283 554.9 239.174C556.021 236.064 549.926 208.292 549.926 208.292Z" fill="white"/>
<path opacity="0.03" d="M549.926 208.292C549.926 208.292 548.438 211.288 545.449 210.803C542.461 210.317 542.467 221.588 542.467 221.588C542.467 221.588 540.481 223.385 539.111 221.827C537.741 220.27 534.13 225.536 534.13 225.536L511.505 226.495C511.505 226.495 521.572 230.923 519.599 244.321C519.599 244.321 553.779 242.283 554.9 239.174C556.021 236.064 549.926 208.292 549.926 208.292Z" fill="black"/>
<path d="M484.173 233.535L490.137 238.437L539.235 248.365L533.146 242.385L484.173 233.535Z" fill="white"/>
<path d="M568.697 178.866C567.881 180.065 565.546 186.2 563.598 191.557C561.973 196.021 560.615 199.945 560.615 199.945C560.615 199.945 557.446 219.802 555.828 223.391C554.209 226.98 555.087 240.977 555.087 240.977L549.054 275.544C549.054 275.544 546.321 293.369 542.099 304.016C537.934 314.496 533.296 319.409 533.153 319.565C535.02 317.132 545.2 269.234 545.2 269.234L548.562 208.825C548.562 208.825 549.054 203.085 549.552 198.178C550.05 193.271 560.136 186.572 560.136 186.572L569.861 173.264C570.839 174.522 570.185 176.715 568.697 178.866Z" fill="white"/>
<path d="M543.338 256.502C543.338 256.502 529.018 255.903 522.083 247.886C515.147 239.869 538.115 244.686 538.115 244.686L544.085 246.004L543.338 256.502Z" fill="#FFB0B1"/>
<path opacity="0.1" d="M610.212 348.254C609.446 350.865 609.322 353.612 609.851 356.277C594.23 357.343 577.519 353.281 577.519 353.281C574.406 356.037 566.207 360.1 566.207 360.1L561.736 306.773C558.879 299.583 557.758 261.912 557.758 261.912C557.758 261.912 558.013 259.941 558.381 256.987C558.381 256.915 558.381 256.837 558.412 256.765C559.526 248.515 561.736 233.026 562.82 230.935C564.314 228.059 558.225 220.407 558.225 220.407L560.995 197.669L561.332 194.924C567.172 192.414 571.648 184.397 571.648 184.397L575.085 178.603C578.821 176.296 579.014 198.903 579.014 198.903L575.278 252.284L587.655 248.994C587.655 248.994 612.323 341.435 610.212 348.254Z" fill="black"/>
<path d="M626.244 351.939C609.216 360.076 578.266 352.538 578.266 352.538C575.153 355.294 566.954 359.357 566.954 359.357L562.477 306.03C559.626 298.84 558.505 261.169 558.505 261.169C558.505 261.169 562.104 233.062 563.598 230.192C564.034 229.353 563.822 228.107 563.305 226.765C560.765 220.376 559.83 213.5 560.578 206.698L561.774 196.926L562.104 194.187C567.95 191.671 572.426 183.654 572.426 183.654L575.539 178.405L581.267 168.734L583.982 164.157L584.443 164.558L587.96 167.626C587.96 167.626 589.455 168.824 591.696 170.622C596.571 174.576 604.995 181.539 609.34 185.799C613.163 189.55 614.371 204.14 614.72 215.123C614.95 222.355 614.813 228.023 614.813 228.023C610.959 234.129 621.039 283.147 621.039 283.147C623.386 292.62 626.244 351.939 626.244 351.939Z" fill="white"/>
<path opacity="0.03" d="M593.558 183.534C593.558 183.534 581.871 204.943 583.229 213.079C584.586 221.216 588.446 230.426 586.584 232.577C585.945 233.392 585.118 234.053 584.169 234.509C583.219 234.966 582.173 235.204 581.112 235.207C579.244 235.327 574.263 238.676 574.263 239.036C574.263 239.395 569.662 239.395 565.547 241.073C561.431 242.751 555.355 243.703 555.355 243.703C555.355 243.703 543.525 243.344 542.423 244.422C541.321 245.501 540.188 251.954 542.548 257.101C544.907 262.248 547.529 266.089 549.508 266.79C551.488 267.491 564.052 263.44 574.244 262.482C584.436 261.523 595.5 253.752 595.5 253.752C595.5 253.752 607.684 249.557 609.82 242.505C611.955 235.453 607.211 196.692 607.211 196.692C607.211 196.692 603.625 178.627 593.558 183.534Z" fill="black"/>
<path opacity="0.03" d="M592.063 181.736C592.063 181.736 580.377 203.151 581.747 211.282C583.116 219.413 586.964 228.628 585.096 230.785C584.459 231.601 583.634 232.263 582.685 232.72C581.736 233.176 580.69 233.414 579.63 233.415C577.762 233.535 572.781 236.885 572.781 237.244C572.781 237.604 568.18 237.604 564.065 239.275C559.949 240.947 553.873 241.906 553.873 241.906C553.873 241.906 542.043 241.546 540.948 242.625C539.852 243.703 538.706 250.162 541.072 255.303C543.438 260.444 546.053 264.291 548.033 264.992C550.013 265.693 562.577 261.643 572.769 260.69C582.961 259.737 594.024 251.954 594.024 251.954C594.024 251.954 606.203 247.76 608.313 240.713C610.424 233.667 605.704 194.894 605.704 194.894C605.704 194.894 602.131 176.835 592.063 181.736Z" fill="black"/>
<path d="M593.19 182.455C593.19 182.455 581.504 203.87 582.874 212.001C584.243 220.132 588.091 229.347 586.23 231.498C585.592 232.316 584.766 232.98 583.816 233.437C582.866 233.895 581.819 234.134 580.757 234.134C578.889 234.254 573.908 237.604 573.908 237.957C573.908 238.311 569.313 238.317 565.192 239.994C561.07 241.672 555 242.625 555 242.625C555 242.625 543.17 242.265 542.068 243.344C540.966 244.422 539.833 250.882 542.193 256.022C544.553 261.163 547.174 265.01 549.154 265.711C551.133 266.412 563.698 262.362 573.89 261.403C584.082 260.444 595.145 252.673 595.145 252.673C595.145 252.673 607.329 248.479 609.465 241.426C611.601 234.374 606.887 195.613 606.887 195.613C606.887 195.613 603.251 177.578 593.19 182.455Z" fill="white"/>
<path opacity="0.1" d="M592.935 239.893C592.935 239.893 583.596 238.095 586.846 241.091C590.096 244.087 590.077 246.711 594.056 246.591C598.034 246.472 592.935 239.893 592.935 239.893Z" fill="black"/>
<path opacity="0.1" d="M608.718 304.352C608.718 304.352 604.497 307.102 612.572 313.442C620.647 319.781 608.718 304.352 608.718 304.352Z" fill="black"/>
<path opacity="0.1" d="M600.661 326.959C600.661 327.318 599.167 340.141 604.758 343.346C610.349 346.552 600.661 326.959 600.661 326.959Z" fill="black"/>
<path d="M511.891 226.465C507.383 226.615 497.646 227.939 502.695 237.005C507.159 245.028 514.661 239.665 518.883 235.596C517.853 231.803 515.35 228.535 511.891 226.465Z" fill="#FFB0B1"/>
<path d="M518.939 235.524L519.125 235.339L518.939 235.524Z" fill="#FFB0B1"/>
<path opacity="0.1" d="M591.696 170.987C586.914 174.133 582.905 176.787 582.12 177.339C579.978 178.866 575.894 187.836 573.261 192.414C571.162 196.099 564.345 197.045 561.774 197.279L562.104 194.541C567.95 192.024 572.426 184.007 572.426 184.007L583.982 164.51L587.96 167.991C587.96 167.991 589.454 169.19 591.696 170.987Z" fill="black"/>
<path d="M591.696 170.628C586.914 173.773 582.905 176.428 582.12 176.985C579.978 178.507 575.894 187.477 573.261 192.054C571.162 195.739 564.345 196.686 561.774 196.92L562.104 194.181C567.95 191.665 572.426 183.648 572.426 183.648L583.982 164.151L587.96 167.62C587.96 167.62 589.454 168.806 591.696 170.628Z" fill="#DCE7FF"/>
<path d="M582.494 155.361C582.497 158.957 581.363 162.47 579.244 165.433C576.741 168.936 573.016 171.459 568.746 172.546C564.475 173.632 559.941 173.208 555.967 171.353C551.992 169.497 548.841 166.332 547.084 162.431C545.327 158.531 545.082 154.153 546.392 150.093C547.702 146.033 550.481 142.56 554.224 140.303C557.968 138.046 562.428 137.156 566.795 137.793C571.163 138.43 575.148 140.553 578.029 143.776C580.909 146.999 582.493 151.109 582.494 155.361Z" fill="#FFB0B1"/>
<path opacity="0.1" d="M614.72 215.129C612.191 213.632 610.132 211.503 608.761 208.969C607.722 206.992 607.031 204.709 605.256 203.307C603.656 202.049 601.52 201.743 599.528 201.18C592.978 199.316 587.487 193.564 587.282 186.997C587.182 183.905 588.184 180.82 587.73 177.758C587.471 176.025 586.755 174.385 585.65 172.994C585.102 172.329 584.5 171.706 583.851 171.131C582.979 170.34 582.064 169.573 581.267 168.734C580.765 168.215 580.327 167.642 579.96 167.027C579.664 166.523 579.424 165.991 579.244 165.439C577.999 161.772 579.132 157.422 577.762 153.713L577.687 153.509C577.171 152.191 576.118 150.873 574.655 150.771C573.192 150.669 571.941 151.837 570.546 152.359C567.626 153.449 564.476 151.592 562.041 149.698C559.607 147.805 556.861 145.642 553.767 146.061C551.719 146.343 550.1 147.685 548.213 148.38C547.787 148.539 547.348 148.661 546.9 148.746C548.496 144.914 551.429 141.737 555.195 139.761C558.961 137.784 563.325 137.131 567.537 137.915C571.749 138.698 575.545 140.869 578.275 144.054C581.004 147.238 582.496 151.238 582.494 155.367C582.496 156.613 582.36 157.857 582.089 159.076C582.12 159.159 582.151 159.237 582.189 159.321C582.911 161.119 583.727 162.964 584.443 164.558L587.96 167.626C587.96 167.626 589.454 168.824 591.696 170.622C596.571 174.576 604.995 181.539 609.34 185.799C613.163 189.562 614.358 204.146 614.72 215.129Z" fill="black"/>
<path d="M547.996 137.433C548.886 135.69 549.328 133.736 550.393 132.083C551.955 129.686 554.682 128.152 557.484 127.223C564.8 124.797 580.259 121.273 584.879 127.223C585.788 128.422 586.541 129.752 587.799 130.579C588.757 131.208 589.915 131.477 590.968 131.951C593.913 133.281 595.793 136.181 596.795 139.141C597.798 142.101 598.096 145.277 598.831 148.326C599.771 152.239 601.421 155.948 603.065 159.633C605.001 163.983 607.056 168.495 610.791 171.568C615.89 175.763 617.017 181.701 621.749 186.302C627.352 191.767 627.172 200.784 624.283 207.944C623.903 208.885 623.474 209.868 623.623 210.868C623.773 211.869 624.545 212.78 625.273 213.577L628.336 216.902C621.089 218.586 612.889 214.943 609.515 208.55C608.475 206.572 607.784 204.295 606.003 202.887C604.41 201.629 602.268 201.33 600.282 200.766C593.732 198.897 588.241 193.139 588.035 186.572C587.936 183.486 588.938 180.4 588.483 177.344C588.231 175.6 587.512 173.948 586.398 172.551C584.686 170.4 582.102 168.956 580.707 166.559C578.347 162.551 580.141 157.344 578.441 153.042C577.918 151.724 576.872 150.405 575.409 150.304C573.946 150.202 572.694 151.37 571.293 151.891C568.38 152.982 565.229 151.13 562.795 149.231C560.36 147.332 557.615 145.175 554.514 145.6C552.466 145.876 550.853 147.218 548.967 147.919C547.572 148.434 544.746 148.896 543.525 147.763C540.948 145.48 546.919 139.566 547.996 137.433Z" fill="#591D4B"/>
<path opacity="0.1" d="M611.246 206.572C610.2 204.595 609.515 202.318 607.734 200.916C606.14 199.658 603.999 199.352 602.006 198.789C595.463 196.926 589.971 191.168 589.76 184.601C589.66 181.515 590.662 178.423 590.214 175.367C589.953 173.634 589.235 171.994 588.128 170.604C586.41 168.453 583.826 167.009 582.438 164.612C580.078 160.609 581.871 155.403 580.165 151.095C579.649 149.782 578.596 148.464 577.139 148.356C575.683 148.248 574.419 149.429 573.024 149.95C570.11 151.041 566.954 149.183 564.526 147.29C562.097 145.396 559.339 143.233 556.245 143.653C554.197 143.934 552.578 145.277 550.698 145.972C549.303 146.487 546.47 146.954 545.25 145.822C542.685 143.425 548.655 137.523 549.726 135.402C550.617 133.652 551.059 131.705 552.13 130.051C552.186 129.962 552.248 129.872 552.31 129.782C551.509 130.42 550.818 131.177 550.262 132.023C549.197 133.676 548.755 135.618 547.865 137.373C546.788 139.494 540.817 145.414 543.388 147.793C544.633 148.932 547.435 148.464 548.83 147.949C550.698 147.248 552.329 145.906 554.377 145.63C557.49 145.205 560.23 147.368 562.658 149.261C565.086 151.154 568.261 153.012 571.163 151.921C572.557 151.4 573.777 150.226 575.272 150.334C576.766 150.441 577.762 151.754 578.304 153.072C580.003 157.374 578.21 162.581 580.57 166.589C581.965 168.944 584.548 170.418 586.261 172.581C587.375 173.978 588.093 175.63 588.346 177.374C588.801 180.43 587.798 183.516 587.898 186.602C588.104 193.193 593.595 198.927 600.145 200.796C602.118 201.36 604.272 201.659 605.866 202.917C607.653 204.325 608.357 206.602 609.378 208.58C612.752 214.973 620.952 218.616 628.199 216.932L626.755 215.362C620.473 215.452 614.116 212.013 611.246 206.572Z" fill="black"/>
<path opacity="0.1" d="M568.323 179.226C567.508 180.424 565.173 186.56 563.224 191.916C561.4 191.233 559.744 186.877 559.744 186.877L569.469 173.564C570.465 174.882 569.811 177.069 568.323 179.226Z" fill="black"/>
<path d="M568.697 178.866C567.881 180.065 565.547 186.2 563.598 191.557C561.774 190.88 560.118 186.518 560.118 186.518L569.843 173.21C570.839 174.522 570.185 176.715 568.697 178.866Z" fill="#DCE7FF"/>
<path d="M512.152 240.078L506.76 223.715C506.697 223.523 506.673 223.321 506.69 223.121C506.708 222.92 506.766 222.725 506.862 222.547C506.958 222.368 507.09 222.209 507.25 222.08C507.41 221.95 507.595 221.852 507.794 221.792C508.195 221.671 508.63 221.708 509.003 221.894C509.376 222.08 509.658 222.401 509.786 222.786L515.178 239.132L514.643 242.553L512.152 240.078Z" fill="#BE8B87"/>
<path opacity="0.1" d="M507.271 222.277C507.673 222.154 508.109 222.19 508.484 222.377C508.859 222.563 509.141 222.885 509.27 223.271L514.661 239.617L514.257 242.181L514.649 242.577L515.184 239.156L509.762 222.81C509.633 222.425 509.351 222.104 508.978 221.918C508.605 221.732 508.171 221.695 507.769 221.815C507.432 221.921 507.14 222.132 506.941 222.415C507.047 222.36 507.157 222.314 507.271 222.277Z" fill="white"/>
<path d="M512.152 240.078L515.178 239.156L514.736 241.96L514.643 242.577L513.759 241.69L512.152 240.078Z" fill="#EFC8C4"/>
<path d="M513.759 241.69C513.811 241.626 513.877 241.573 513.952 241.534C513.996 241.508 514.046 241.494 514.098 241.494C514.15 241.494 514.201 241.508 514.244 241.534C514.287 241.584 514.322 241.638 514.35 241.696C514.391 241.762 514.447 241.819 514.514 241.861C514.581 241.904 514.657 241.931 514.736 241.942L514.643 242.541L513.759 241.69Z" fill="#727A9C"/>
<path d="M506.729 229.527C506.729 229.527 517.544 229.467 514.998 233.895C512.451 238.323 508.473 238.856 508.473 238.856L506.729 229.527Z" fill="#FFB0B1"/>
<path d="M439.47 30.8097H439.003C420.424 30.8097 403.994 40.2707 394.543 54.2315C385.092 40.2707 368.661 30.8097 350.083 30.8097H349.616C335.673 30.9376 322.346 36.3557 312.531 45.8866C302.716 55.4176 297.207 68.2912 297.199 81.7098C297.199 98.3729 304.782 122.016 319.569 141.472C347.742 178.543 394.543 210.976 394.543 210.976C394.543 210.976 441.344 178.549 469.51 141.472C484.303 122.016 491.88 98.3729 491.88 81.7098C491.873 68.2922 486.364 55.4195 476.55 45.8887C466.737 36.3579 453.411 30.9391 439.47 30.8097ZM432.789 144.324C430.673 144.316 428.609 143.693 426.868 142.536C425.127 141.379 423.79 139.742 423.033 137.841H411.926C411.194 137.836 410.483 137.612 409.89 137.2C409.297 136.787 408.853 136.207 408.62 135.54L405.208 125.647L394.412 161.952C394.202 162.65 393.762 163.265 393.158 163.702C392.554 164.14 391.818 164.377 391.062 164.378H390.845C390.056 164.342 389.304 164.045 388.715 163.539C388.125 163.033 387.734 162.348 387.607 161.598L376.481 97.1985L368.35 135.306C368.163 136.03 367.73 136.673 367.12 137.132C366.509 137.592 365.757 137.841 364.982 137.841H349.336C348.867 137.86 348.398 137.787 347.959 137.628C347.52 137.468 347.119 137.225 346.78 136.912C346.441 136.6 346.172 136.224 345.987 135.809C345.803 135.393 345.708 134.946 345.708 134.494C345.708 134.043 345.803 133.595 345.987 133.18C346.172 132.764 346.441 132.389 346.78 132.076C347.119 131.764 347.52 131.52 347.959 131.361C348.398 131.201 348.867 131.129 349.336 131.148H362.242L373.76 79.9123C373.949 79.1548 374.406 78.484 375.052 78.0146C375.698 77.5452 376.494 77.3064 377.302 77.3389C378.111 77.3715 378.883 77.6734 379.486 78.1931C380.089 78.7127 380.486 79.4178 380.609 80.1879L391.971 145.882L401.647 113.4C401.848 112.716 402.274 112.113 402.861 111.681C403.448 111.249 404.164 111.012 404.903 111.004H404.971C405.703 111.004 406.416 111.226 407.009 111.639C407.601 112.053 408.043 112.635 408.271 113.304L414.441 131.166H422.896C423.497 129.408 424.591 127.845 426.057 126.648C427.524 125.451 429.305 124.667 431.205 124.383C433.105 124.098 435.049 124.325 436.824 125.037C438.599 125.749 440.134 126.919 441.261 128.418C442.389 129.917 443.063 131.687 443.212 133.532C443.36 135.377 442.975 137.225 442.101 138.873C441.226 140.521 439.896 141.904 438.256 142.87C436.616 143.836 434.731 144.348 432.808 144.348L432.789 144.324Z" fill="#094D35"/>
</g>
<defs>
<linearGradient id="paint0_linear" x1="221.852" y1="464.284" x2="221.852" y2="95.5867" gradientUnits="userSpaceOnUse">
<stop stop-color="#808080" stop-opacity="0.25"/>
<stop offset="0.54" stop-color="#808080" stop-opacity="0.12"/>
<stop offset="1" stop-color="#808080" stop-opacity="0.1"/>
</linearGradient>
<linearGradient id="paint1_linear" x1="138974" y1="278187" x2="138974" y2="88931.6" gradientUnits="userSpaceOnUse">
<stop stop-color="#808080" stop-opacity="0.25"/>
<stop offset="0.54" stop-color="#808080" stop-opacity="0.12"/>
<stop offset="1" stop-color="#808080" stop-opacity="0.1"/>
</linearGradient>
<clipPath id="clip0">
<rect width="688" height="469" fill="white"/>
</clipPath>
</defs>
</svg>
