<svg width="642" height="331" viewBox="0 0 642 331" fill="none" xmlns="http://www.w3.org/2000/svg">
<path d="M641.147 330.926H0.851992C0.626321 330.926 0.410122 330.835 0.25078 330.676C0.0914378 330.516 0.00195312 330.299 0.00195312 330.074C0.00195312 329.848 0.0914378 329.631 0.25078 329.472C0.410122 329.312 0.626321 329.222 0.851992 329.221H641.147C641.373 329.222 641.589 329.312 641.748 329.472C641.908 329.631 641.997 329.848 641.997 330.074C641.997 330.299 641.908 330.516 641.748 330.676C641.589 330.835 641.373 330.926 641.147 330.926Z" fill="#3F3D56"/>
<path d="M200.727 41.1338C203.284 41.1338 205.357 39.0607 205.357 36.5033C205.357 33.946 203.284 31.8728 200.727 31.8728C198.17 31.8728 196.097 33.946 196.097 36.5033C196.097 39.0607 198.17 41.1338 200.727 41.1338Z" fill="#F2F2F2"/>
<path d="M182.274 41.1338C184.831 41.1338 186.904 39.0607 186.904 36.5033C186.904 33.946 184.831 31.8728 182.274 31.8728C179.717 31.8728 177.644 33.946 177.644 36.5033C177.644 39.0607 179.717 41.1338 182.274 41.1338Z" fill="#F2F2F2"/>
<path d="M163.821 41.1338C166.378 41.1338 168.451 39.0607 168.451 36.5033C168.451 33.946 166.378 31.8728 163.821 31.8728C161.263 31.8728 159.19 33.946 159.19 36.5033C159.19 39.0607 161.263 41.1338 163.821 41.1338Z" fill="#F2F2F2"/>
<path d="M145.367 41.1338C147.925 41.1338 149.998 39.0607 149.998 36.5033C149.998 33.946 147.925 31.8728 145.367 31.8728C142.81 31.8728 140.737 33.946 140.737 36.5033C140.737 39.0607 142.81 41.1338 145.367 41.1338Z" fill="#F2F2F2"/>
<path d="M200.727 60.4666C203.284 60.4666 205.357 58.3935 205.357 55.8361C205.357 53.2788 203.284 51.2056 200.727 51.2056C198.17 51.2056 196.097 53.2788 196.097 55.8361C196.097 58.3935 198.17 60.4666 200.727 60.4666Z" fill="#F2F2F2"/>
<path d="M182.274 60.4666C184.831 60.4666 186.904 58.3935 186.904 55.8361C186.904 53.2788 184.831 51.2056 182.274 51.2056C179.717 51.2056 177.644 53.2788 177.644 55.8361C177.644 58.3935 179.717 60.4666 182.274 60.4666Z" fill="#F2F2F2"/>
<path d="M163.821 60.4666C166.378 60.4666 168.451 58.3935 168.451 55.8361C168.451 53.2788 166.378 51.2056 163.821 51.2056C161.263 51.2056 159.19 53.2788 159.19 55.8361C159.19 58.3935 161.263 60.4666 163.821 60.4666Z" fill="#F2F2F2"/>
<path d="M145.367 60.4666C147.925 60.4666 149.998 58.3935 149.998 55.8361C149.998 53.2788 147.925 51.2056 145.367 51.2056C142.81 51.2056 140.737 53.2788 140.737 55.8361C140.737 58.3935 142.81 60.4666 145.367 60.4666Z" fill="#F2F2F2"/>
<path d="M200.727 79.7994C203.284 79.7994 205.357 77.7262 205.357 75.1689C205.357 72.6116 203.284 70.5384 200.727 70.5384C198.17 70.5384 196.097 72.6116 196.097 75.1689C196.097 77.7262 198.17 79.7994 200.727 79.7994Z" fill="#F2F2F2"/>
<path d="M182.274 79.7994C184.831 79.7994 186.904 77.7262 186.904 75.1689C186.904 72.6116 184.831 70.5384 182.274 70.5384C179.717 70.5384 177.644 72.6116 177.644 75.1689C177.644 77.7262 179.717 79.7994 182.274 79.7994Z" fill="#F2F2F2"/>
<path d="M163.821 79.7994C166.378 79.7994 168.451 77.7262 168.451 75.1689C168.451 72.6116 166.378 70.5384 163.821 70.5384C161.263 70.5384 159.19 72.6116 159.19 75.1689C159.19 77.7262 161.263 79.7994 163.821 79.7994Z" fill="#F2F2F2"/>
<path d="M145.367 79.7994C147.925 79.7994 149.998 77.7262 149.998 75.1689C149.998 72.6116 147.925 70.5384 145.367 70.5384C142.81 70.5384 140.737 72.6116 140.737 75.1689C140.737 77.7262 142.81 79.7994 145.367 79.7994Z" fill="#F2F2F2"/>
<path d="M200.727 99.1322C203.284 99.1322 205.357 97.059 205.357 94.5017C205.357 91.9443 203.284 89.8712 200.727 89.8712C198.17 89.8712 196.097 91.9443 196.097 94.5017C196.097 97.059 198.17 99.1322 200.727 99.1322Z" fill="#F2F2F2"/>
<path d="M182.274 99.1322C184.831 99.1322 186.904 97.059 186.904 94.5017C186.904 91.9443 184.831 89.8712 182.274 89.8712C179.717 89.8712 177.644 91.9443 177.644 94.5017C177.644 97.059 179.717 99.1322 182.274 99.1322Z" fill="#F2F2F2"/>
<path d="M163.821 99.1322C166.378 99.1322 168.451 97.059 168.451 94.5017C168.451 91.9443 166.378 89.8712 163.821 89.8712C161.263 89.8712 159.19 91.9443 159.19 94.5017C159.19 97.059 161.263 99.1322 163.821 99.1322Z" fill="#F2F2F2"/>
<path d="M145.367 99.1322C147.925 99.1322 149.998 97.059 149.998 94.5017C149.998 91.9443 147.925 89.8712 145.367 89.8712C142.81 89.8712 140.737 91.9443 140.737 94.5017C140.737 97.059 142.81 99.1322 145.367 99.1322Z" fill="#F2F2F2"/>
<path d="M200.727 118.465C203.284 118.465 205.357 116.392 205.357 113.834C205.357 111.277 203.284 109.204 200.727 109.204C198.17 109.204 196.097 111.277 196.097 113.834C196.097 116.392 198.17 118.465 200.727 118.465Z" fill="#F2F2F2"/>
<path d="M182.274 118.465C184.831 118.465 186.904 116.392 186.904 113.834C186.904 111.277 184.831 109.204 182.274 109.204C179.717 109.204 177.644 111.277 177.644 113.834C177.644 116.392 179.717 118.465 182.274 118.465Z" fill="#F2F2F2"/>
<path d="M163.821 118.465C166.378 118.465 168.451 116.392 168.451 113.834C168.451 111.277 166.378 109.204 163.821 109.204C161.263 109.204 159.19 111.277 159.19 113.834C159.19 116.392 161.263 118.465 163.821 118.465Z" fill="#F2F2F2"/>
<path d="M145.367 118.465C147.925 118.465 149.998 116.392 149.998 113.834C149.998 111.277 147.925 109.204 145.367 109.204C142.81 109.204 140.737 111.277 140.737 113.834C140.737 116.392 142.81 118.465 145.367 118.465Z" fill="#F2F2F2"/>
<path d="M200.727 137.798C203.284 137.798 205.357 135.725 205.357 133.167C205.357 130.61 203.284 128.537 200.727 128.537C198.17 128.537 196.097 130.61 196.097 133.167C196.097 135.725 198.17 137.798 200.727 137.798Z" fill="#F2F2F2"/>
<path d="M182.274 137.798C184.831 137.798 186.904 135.725 186.904 133.167C186.904 130.61 184.831 128.537 182.274 128.537C179.717 128.537 177.644 130.61 177.644 133.167C177.644 135.725 179.717 137.798 182.274 137.798Z" fill="#F2F2F2"/>
<path d="M163.821 137.798C166.378 137.798 168.451 135.725 168.451 133.167C168.451 130.61 166.378 128.537 163.821 128.537C161.263 128.537 159.19 130.61 159.19 133.167C159.19 135.725 161.263 137.798 163.821 137.798Z" fill="#F2F2F2"/>
<path d="M145.367 137.798C147.925 137.798 149.998 135.725 149.998 133.167C149.998 130.61 147.925 128.537 145.367 128.537C142.81 128.537 140.737 130.61 140.737 133.167C140.737 135.725 142.81 137.798 145.367 137.798Z" fill="#F2F2F2"/>
<path d="M160.041 259.489V260.921C160.043 263.294 160.987 265.569 162.665 267.247C164.343 268.926 166.618 269.869 168.991 269.871H233.429C235.802 269.87 238.078 268.927 239.756 267.249C241.434 265.57 242.378 263.294 242.379 260.921V259.489C242.383 257.394 241.648 255.366 240.302 253.761C239.854 253.228 239.347 252.747 238.791 252.329C238.791 252.329 203.365 251.527 203.365 250.538H168.991C166.618 250.542 164.344 251.486 162.666 253.164C160.988 254.841 160.044 257.116 160.041 259.489V259.489Z" fill="#CCCCCC"/>
<path d="M206.382 269.516H197.074V329.662H206.382V269.516Z" fill="#CCCCCC"/>
<path d="M232.873 329.335C232.873 330.341 218.769 329.724 201.37 329.724C183.972 329.724 169.867 330.341 169.867 329.335C169.867 328.329 183.972 320.354 201.37 320.354C218.769 320.354 232.873 328.329 232.873 329.335Z" fill="#CCCCCC"/>
<path d="M220.077 258.274C220.748 257.373 221.215 256.334 221.442 255.233C221.669 254.132 221.652 252.994 221.393 251.9C221.133 250.806 220.636 249.782 219.938 248.901C219.239 248.019 218.356 247.302 217.351 246.799L197.623 179.574L182.602 186.932L206.716 250.698C205.983 252.443 205.916 254.397 206.527 256.189C207.138 257.981 208.385 259.487 210.031 260.421C211.678 261.355 213.61 261.652 215.462 261.256C217.313 260.861 218.955 259.8 220.077 258.274L220.077 258.274Z" fill="#A0616A"/>
<path d="M202.093 190.801L185.279 195.352C184.801 195.482 184.3 195.507 183.812 195.425C183.323 195.344 182.857 195.158 182.447 194.88C182.036 194.603 181.69 194.24 181.432 193.816C181.175 193.393 181.011 192.919 180.953 192.427L178.921 175.18C178.273 172.728 178.623 170.12 179.894 167.926C181.166 165.732 183.255 164.132 185.705 163.477C188.154 162.821 190.764 163.164 192.961 164.429C195.158 165.695 196.764 167.78 197.426 170.228L204.352 186.092C204.551 186.547 204.648 187.038 204.64 187.534C204.631 188.029 204.515 188.517 204.3 188.964C204.086 189.411 203.778 189.806 203.397 190.123C203.016 190.44 202.571 190.671 202.093 190.801H202.093Z" fill="#094D35"/>
<path d="M224.471 322.285L233.249 322.285L237.425 299.518H224.47L224.471 322.285Z" fill="#A0616A"/>
<path d="M222.231 319.419L239.518 319.419H239.519C240.965 319.419 242.398 319.703 243.734 320.257C245.071 320.811 246.285 321.622 247.308 322.645C248.331 323.668 249.143 324.883 249.696 326.219C250.25 327.556 250.535 328.989 250.535 330.436V330.794L222.232 330.795L222.231 319.419Z" fill="#2F2E41"/>
<path d="M234.659 310.077C234.557 310.077 234.454 310.072 234.351 310.062L222.203 309.177C221.712 309.132 221.238 308.974 220.817 308.716C220.397 308.458 220.041 308.107 219.777 307.69C219.514 307.273 219.35 306.801 219.297 306.31C219.245 305.82 219.306 305.323 219.476 304.86L235.733 268.332C235.85 268.007 235.897 267.66 235.873 267.315C235.849 266.971 235.753 266.634 235.593 266.328C235.433 266.018 235.209 265.746 234.936 265.529C234.663 265.311 234.348 265.155 234.01 265.068C226.365 263.07 206.751 257.748 189.772 251.522C182.498 248.855 177.916 245 176.155 240.064C173.833 233.558 177.268 227.624 177.415 227.375L177.531 227.18L193.507 228.632L210.828 230.106L248.784 250.461C251.965 252.181 254.381 255.036 255.551 258.457C256.721 261.879 256.559 265.615 255.098 268.923L237.599 308.167C237.346 308.735 236.933 309.218 236.412 309.557C235.89 309.896 235.281 310.076 234.659 310.077V310.077Z" fill="#2F2E41"/>
<path d="M196.285 156.364C205.997 156.364 213.871 148.491 213.871 138.778C213.871 129.065 205.997 121.191 196.285 121.191C186.573 121.191 178.7 129.065 178.7 138.778C178.7 148.491 186.573 156.364 196.285 156.364Z" fill="#A0616A"/>
<path d="M219.458 321.569L228.236 321.569L232.413 298.802H219.457L219.458 321.569Z" fill="#A0616A"/>
<path d="M217.22 318.703L234.506 318.703H234.507C235.954 318.703 237.386 318.987 238.723 319.541C240.059 320.095 241.274 320.906 242.297 321.929C243.32 322.952 244.131 324.167 244.685 325.503C245.238 326.84 245.523 328.273 245.523 329.72V330.078L217.22 330.079L217.22 318.703Z" fill="#2F2E41"/>
<path d="M229.647 312.225C229.545 312.225 229.442 312.22 229.339 312.21L217.192 311.325C216.7 311.28 216.226 311.122 215.806 310.864C215.385 310.606 215.029 310.255 214.766 309.838C214.502 309.421 214.338 308.949 214.286 308.458C214.233 307.968 214.295 307.472 214.464 307.008L230.722 270.48C230.838 270.155 230.885 269.808 230.861 269.464C230.837 269.119 230.742 268.783 230.581 268.476C230.421 268.166 230.197 267.894 229.924 267.677C229.652 267.46 229.336 267.303 228.998 267.216C221.353 265.218 201.739 259.896 184.76 253.67C177.486 251.003 172.905 247.148 171.143 242.212C168.821 235.706 172.256 229.772 172.404 229.523L172.519 229.328L188.496 230.78L205.816 232.254L243.773 252.609C246.953 254.329 249.369 257.184 250.539 260.605C251.709 264.027 251.547 267.763 250.086 271.071L232.587 310.315C232.334 310.883 231.922 311.366 231.4 311.705C230.878 312.044 230.27 312.224 229.647 312.225V312.225Z" fill="#2F2E41"/>
<path d="M201.709 166.337L183.094 159.892C183.094 159.892 171.407 168.871 177.021 191.146C179.952 202.64 179.099 214.774 174.587 225.745C174.044 227.102 173.418 228.425 172.712 229.705C172.712 229.705 193.475 254.766 212.807 236.149L205.289 199.99C205.289 199.99 217.103 176.003 201.709 166.337Z" fill="#2F2E41"/>
<path d="M198.469 156.962C195.966 153.216 193.991 148.021 196.747 144.456C199.467 140.938 204.832 141.456 208.997 139.899C214.8 137.73 218.165 130.913 217.115 124.808C216.066 118.703 211.165 113.642 205.327 111.571C199.49 109.501 192.906 110.174 187.19 112.559C180.152 115.494 174.115 121.173 171.583 128.366C169.052 135.559 170.405 144.196 175.657 149.725C181.287 155.652 190.124 157.232 198.298 157.136" fill="#2F2E41"/>
<path d="M182.111 125.004C178.957 127.572 174.145 126.431 170.76 124.178C167.375 121.925 164.628 118.716 160.965 116.949C154.507 113.834 146.7 115.905 140.415 119.355C134.13 122.805 128.559 127.572 121.92 130.279C115.282 132.986 106.81 133.12 101.784 128.008C100.546 131.592 100.445 135.471 101.494 139.115C102.543 142.759 104.69 145.99 107.643 148.369C110.596 150.747 114.21 152.157 117.994 152.405C121.777 152.653 125.545 151.727 128.783 149.755C136.057 145.324 140.075 136.033 148.233 133.587C152.748 132.234 157.596 133.324 162.159 134.505C166.721 135.685 171.479 136.961 176.084 135.956C180.688 134.951 184.995 130.813 184.41 126.136L182.111 125.004Z" fill="#2F2E41"/>
<path d="M239.356 290.713C237.494 278.617 237.494 266.308 239.356 254.213C239.475 253.493 239.844 252.838 240.4 252.365C240.955 251.893 241.661 251.632 242.39 251.631H270.938C271.401 251.629 271.857 251.734 272.274 251.935C272.69 252.137 273.055 252.431 273.34 252.795C273.632 253.164 273.836 253.595 273.936 254.055C274.036 254.514 274.03 254.991 273.918 255.448C271.248 266.634 271.248 278.291 273.918 289.477C274.03 289.934 274.036 290.411 273.936 290.87C273.836 291.33 273.632 291.761 273.34 292.13C273.055 292.494 272.69 292.788 272.274 292.99C271.857 293.192 271.401 293.296 270.938 293.294H242.39C241.661 293.293 240.955 293.033 240.4 292.56C239.844 292.087 239.475 291.432 239.356 290.713V290.713Z" fill="#094D35"/>
<path d="M262.152 269.3H247.171C246.602 269.299 246.056 269.073 245.653 268.67C245.251 268.267 245.024 267.721 245.023 267.152V266.313C245.024 265.743 245.251 265.197 245.653 264.795C246.056 264.392 246.602 264.165 247.171 264.165H262.152C262.722 264.165 263.268 264.392 263.67 264.795C264.073 265.197 264.3 265.743 264.3 266.313V267.152C264.3 267.721 264.073 268.267 263.67 268.67C263.268 269.073 262.722 269.299 262.152 269.3Z" fill="white"/>
<path d="M262.152 278.139H247.171C246.602 278.139 246.056 277.912 245.653 277.509C245.251 277.107 245.024 276.561 245.023 275.991V275.152C245.024 274.582 245.251 274.036 245.653 273.633C246.056 273.231 246.602 273.004 247.171 273.004H262.152C262.722 273.004 263.268 273.231 263.67 273.633C264.073 274.036 264.3 274.582 264.3 275.152V275.991C264.3 276.561 264.073 277.107 263.67 277.509C263.268 277.912 262.722 278.139 262.152 278.139Z" fill="white"/>
<path d="M246.863 255.053C247.289 254.012 247.481 252.89 247.426 251.767C247.371 250.644 247.07 249.546 246.545 248.552C246.02 247.557 245.284 246.69 244.387 246.011C243.491 245.332 242.456 244.858 241.357 244.622L205.461 184.458L192.754 195.336L232.034 251.055C231.76 252.928 232.183 254.837 233.222 256.419C234.261 258.002 235.845 259.148 237.673 259.641C239.501 260.134 241.446 259.939 243.14 259.093C244.834 258.247 246.159 256.81 246.863 255.053L246.863 255.053Z" fill="#A0616A"/>
<path d="M212.593 194.212L197.451 202.82C197.02 203.065 196.541 203.214 196.048 203.258C195.554 203.301 195.057 203.237 194.59 203.071C194.123 202.905 193.697 202.64 193.342 202.294C192.987 201.949 192.71 201.531 192.531 201.069L186.254 184.876C185.014 182.664 184.701 180.051 185.385 177.609C186.068 175.167 187.692 173.096 189.899 171.849C192.107 170.603 194.72 170.283 197.163 170.959C199.607 171.636 201.683 173.253 202.935 175.458L213.605 189.088C213.911 189.479 214.128 189.93 214.243 190.413C214.359 190.895 214.369 191.396 214.272 191.882C214.176 192.368 213.977 192.828 213.687 193.23C213.397 193.632 213.024 193.967 212.593 194.212V194.212Z" fill="#2F2E41"/>
<path d="M373.717 215.345H83.0298C81.7956 215.345 80.6118 215.836 79.7391 216.709C78.8663 217.581 78.376 218.765 78.376 220C78.376 221.234 78.8663 222.418 79.7391 223.291C80.6118 224.163 81.7956 224.654 83.0298 224.654H91.2636V325.972C91.2636 327.206 91.7539 328.39 92.6267 329.263C93.4994 330.136 94.6832 330.626 95.9174 330.626C97.1517 330.626 98.3355 330.136 99.2082 329.263C100.081 328.39 100.571 327.206 100.571 325.972V233.597L152.745 328.169C153.364 329.235 154.38 330.012 155.571 330.33C156.762 330.648 158.031 330.481 159.098 329.864C160.166 329.248 160.945 328.233 161.265 327.043C161.585 325.852 161.42 324.583 160.806 323.515L106.266 224.654H355.46V224.714L300.953 323.515C300.336 324.583 300.169 325.854 300.488 327.046C300.807 328.238 301.587 329.255 302.656 329.872C303.725 330.489 304.995 330.657 306.187 330.337C307.38 330.018 308.396 329.238 309.013 328.169L355.46 243.979V325.972C355.46 327.206 355.95 328.39 356.823 329.263C357.695 330.136 358.879 330.626 360.113 330.626C361.348 330.626 362.531 330.136 363.404 329.263C364.277 328.39 364.767 327.206 364.767 325.972V227.108L366.121 224.654H373.717C374.951 224.654 376.135 224.163 377.008 223.291C377.881 222.418 378.371 221.234 378.371 220C378.371 218.765 377.881 217.581 377.008 216.709C376.135 215.836 374.951 215.345 373.717 215.345V215.345Z" fill="#3F3D56"/>
<path d="M253.433 212.481H196.871C195.487 212.481 194.365 213.603 194.365 214.987C194.365 216.372 195.487 217.494 196.871 217.494H253.433C254.817 217.494 255.939 216.372 255.939 214.987C255.939 213.603 254.817 212.481 253.433 212.481Z" fill="#CCCCCC"/>
<path d="M291.38 217.494H227.658C226.424 217.492 225.241 217.001 224.369 216.129C223.496 215.256 223.005 214.073 223.004 212.839V177.754C223.005 176.52 223.496 175.337 224.369 174.464C225.241 173.592 226.424 173.101 227.658 173.1H291.38C292.614 173.101 293.797 173.592 294.669 174.464C295.542 175.337 296.032 176.52 296.034 177.754V212.839C296.032 214.073 295.542 215.256 294.669 216.129C293.797 217.001 292.614 217.492 291.38 217.494V217.494Z" fill="#CCCCCC"/>
<path d="M259.519 199.593C261.891 199.593 263.814 197.669 263.814 195.297C263.814 192.924 261.891 191 259.519 191C257.146 191 255.223 192.924 255.223 195.297C255.223 197.669 257.146 199.593 259.519 199.593Z" fill="white"/>
<path d="M340.01 131.049V5.38556C340.011 3.95772 340.579 2.58882 341.589 1.57918C342.598 0.569547 343.967 0.00162412 345.395 0H444.722C446.149 0.00162412 447.518 0.569547 448.528 1.57918C449.537 2.58882 450.105 3.95772 450.107 5.38556V131.049C450.105 132.477 449.537 133.845 448.528 134.855C447.518 135.865 446.149 136.433 444.722 136.434H345.395C343.967 136.433 342.598 135.865 341.589 134.855C340.579 133.845 340.011 132.477 340.01 131.049V131.049ZM345.395 1.19679C344.284 1.19804 343.22 1.63976 342.435 2.42503C341.649 3.21031 341.208 4.27501 341.206 5.38556V131.049C341.208 132.159 341.649 133.224 342.435 134.009C343.22 134.794 344.284 135.236 345.395 135.237H444.722C445.832 135.236 446.897 134.794 447.682 134.009C448.467 133.224 448.909 132.159 448.91 131.049V5.38556C448.909 4.27501 448.467 3.21031 447.682 2.42503C446.897 1.63976 445.832 1.19804 444.722 1.19679H345.395Z" fill="#E6E6E6"/>
<path d="M400.628 57.7103V31.9077C400.629 31.1938 400.913 30.5093 401.417 30.0045C401.922 29.4997 402.607 29.2157 403.32 29.2149H425.184C425.898 29.2157 426.583 29.4997 427.087 30.0045C427.592 30.5093 427.876 31.1938 427.877 31.9077V57.7103C427.876 58.4242 427.592 59.1087 427.087 59.6135C426.583 60.1184 425.898 60.4023 425.184 60.4031H403.32C402.607 60.4023 401.922 60.1184 401.417 59.6135C400.913 59.1087 400.629 58.4242 400.628 57.7103V57.7103Z" fill="#094D35"/>
<path d="M358.145 69.6782V43.8756C358.145 43.1617 358.429 42.4772 358.934 41.9724C359.439 41.4676 360.123 41.1836 360.837 41.1828H382.701C383.415 41.1836 384.099 41.4676 384.604 41.9724C385.109 42.4772 385.393 43.1617 385.394 43.8756V69.6782C385.393 70.3922 385.109 71.0766 384.604 71.5814C384.099 72.0863 383.415 72.3702 382.701 72.371H360.837C360.123 72.3702 359.439 72.0863 358.934 71.5814C358.429 71.0766 358.145 70.3922 358.145 69.6782V69.6782Z" fill="#CCCCCC"/>
<path d="M392.251 106.18V80.3777C392.252 79.6638 392.536 78.9794 393.041 78.4745C393.545 77.9697 394.23 77.6857 394.944 77.685H416.807C417.521 77.6857 418.206 77.9697 418.71 78.4745C419.215 78.9794 419.499 79.6638 419.5 80.3777V106.18C419.499 106.894 419.215 107.579 418.71 108.084C418.206 108.588 417.521 108.872 416.807 108.873H394.944C394.23 108.872 393.545 108.588 393.041 108.084C392.536 107.579 392.252 106.894 392.251 106.18Z" fill="#FF6584"/>
<path d="M558.993 13.0941C561.551 13.0941 563.624 11.021 563.624 8.46367C563.624 5.90632 561.551 3.83318 558.993 3.83318C556.436 3.83318 554.363 5.90632 554.363 8.46367C554.363 11.021 556.436 13.0941 558.993 13.0941Z" fill="#F2F2F2"/>
<path d="M558.993 31.5486C561.551 31.5486 563.624 29.4754 563.624 26.9181C563.624 24.3607 561.551 22.2876 558.993 22.2876C556.436 22.2876 554.363 24.3607 554.363 26.9181C554.363 29.4754 556.436 31.5486 558.993 31.5486Z" fill="#F2F2F2"/>
<path d="M558.993 50.003C561.551 50.003 563.624 47.9299 563.624 45.3725C563.624 42.8152 561.551 40.7421 558.993 40.7421C556.436 40.7421 554.363 42.8152 554.363 45.3725C554.363 47.9299 556.436 50.003 558.993 50.003Z" fill="#F2F2F2"/>
<path d="M558.993 68.4575C561.551 68.4575 563.624 66.3843 563.624 63.827C563.624 61.2696 561.551 59.1965 558.993 59.1965C556.436 59.1965 554.363 61.2696 554.363 63.827C554.363 66.3843 556.436 68.4575 558.993 68.4575Z" fill="#F2F2F2"/>
<path d="M539.662 13.0941C542.22 13.0941 544.293 11.021 544.293 8.46367C544.293 5.90632 542.22 3.83318 539.662 3.83318C537.105 3.83318 535.032 5.90632 535.032 8.46367C535.032 11.021 537.105 13.0941 539.662 13.0941Z" fill="#F2F2F2"/>
<path d="M539.662 31.5486C542.22 31.5486 544.293 29.4754 544.293 26.9181C544.293 24.3607 542.22 22.2876 539.662 22.2876C537.105 22.2876 535.032 24.3607 535.032 26.9181C535.032 29.4754 537.105 31.5486 539.662 31.5486Z" fill="#F2F2F2"/>
<path d="M539.662 50.003C542.22 50.003 544.293 47.9299 544.293 45.3725C544.293 42.8152 542.22 40.7421 539.662 40.7421C537.105 40.7421 535.032 42.8152 535.032 45.3725C535.032 47.9299 537.105 50.003 539.662 50.003Z" fill="#F2F2F2"/>
<path d="M539.662 68.4575C542.22 68.4575 544.293 66.3843 544.293 63.827C544.293 61.2696 542.22 59.1965 539.662 59.1965C537.105 59.1965 535.032 61.2696 535.032 63.827C535.032 66.3843 537.105 68.4575 539.662 68.4575Z" fill="#F2F2F2"/>
<path d="M520.331 13.0941C522.888 13.0941 524.961 11.021 524.961 8.46367C524.961 5.90632 522.888 3.83318 520.331 3.83318C517.774 3.83318 515.701 5.90632 515.701 8.46367C515.701 11.021 517.774 13.0941 520.331 13.0941Z" fill="#F2F2F2"/>
<path d="M520.331 31.5486C522.888 31.5486 524.961 29.4754 524.961 26.9181C524.961 24.3607 522.888 22.2876 520.331 22.2876C517.774 22.2876 515.701 24.3607 515.701 26.9181C515.701 29.4754 517.774 31.5486 520.331 31.5486Z" fill="#F2F2F2"/>
<path d="M520.331 50.003C522.888 50.003 524.961 47.9299 524.961 45.3725C524.961 42.8152 522.888 40.7421 520.331 40.7421C517.774 40.7421 515.701 42.8152 515.701 45.3725C515.701 47.9299 517.774 50.003 520.331 50.003Z" fill="#F2F2F2"/>
<path d="M520.331 68.4575C522.888 68.4575 524.961 66.3843 524.961 63.827C524.961 61.2696 522.888 59.1965 520.331 59.1965C517.774 59.1965 515.701 61.2696 515.701 63.827C515.701 66.3843 517.774 68.4575 520.331 68.4575Z" fill="#F2F2F2"/>
<path d="M500.999 13.0941C503.556 13.0941 505.629 11.021 505.629 8.46367C505.629 5.90632 503.556 3.83318 500.999 3.83318C498.442 3.83318 496.369 5.90632 496.369 8.46367C496.369 11.021 498.442 13.0941 500.999 13.0941Z" fill="#F2F2F2"/>
<path d="M500.999 31.5486C503.556 31.5486 505.629 29.4754 505.629 26.9181C505.629 24.3607 503.556 22.2876 500.999 22.2876C498.442 22.2876 496.369 24.3607 496.369 26.9181C496.369 29.4754 498.442 31.5486 500.999 31.5486Z" fill="#F2F2F2"/>
<path d="M500.999 50.003C503.556 50.003 505.629 47.9299 505.629 45.3725C505.629 42.8152 503.556 40.7421 500.999 40.7421C498.442 40.7421 496.369 42.8152 496.369 45.3725C496.369 47.9299 498.442 50.003 500.999 50.003Z" fill="#F2F2F2"/>
<path d="M500.999 68.4575C503.556 68.4575 505.629 66.3843 505.629 63.827C505.629 61.2696 503.556 59.1965 500.999 59.1965C498.442 59.1965 496.369 61.2696 496.369 63.827C496.369 66.3843 498.442 68.4575 500.999 68.4575Z" fill="#F2F2F2"/>
<path d="M481.668 13.0941C484.225 13.0941 486.298 11.021 486.298 8.46367C486.298 5.90632 484.225 3.83318 481.668 3.83318C479.111 3.83318 477.038 5.90632 477.038 8.46367C477.038 11.021 479.111 13.0941 481.668 13.0941Z" fill="#F2F2F2"/>
<path d="M481.668 31.5486C484.225 31.5486 486.298 29.4754 486.298 26.9181C486.298 24.3607 484.225 22.2876 481.668 22.2876C479.111 22.2876 477.038 24.3607 477.038 26.9181C477.038 29.4754 479.111 31.5486 481.668 31.5486Z" fill="#F2F2F2"/>
<path d="M481.668 50.003C484.225 50.003 486.298 47.9299 486.298 45.3725C486.298 42.8152 484.225 40.7421 481.668 40.7421C479.111 40.7421 477.038 42.8152 477.038 45.3725C477.038 47.9299 479.111 50.003 481.668 50.003Z" fill="#F2F2F2"/>
<path d="M481.668 68.4575C484.225 68.4575 486.298 66.3843 486.298 63.827C486.298 61.2696 484.225 59.1965 481.668 59.1965C479.111 59.1965 477.038 61.2696 477.038 63.827C477.038 66.3843 479.111 68.4575 481.668 68.4575Z" fill="#F2F2F2"/>
<path d="M462.336 13.0941C464.893 13.0941 466.966 11.021 466.966 8.46367C466.966 5.90632 464.893 3.83318 462.336 3.83318C459.779 3.83318 457.706 5.90632 457.706 8.46367C457.706 11.021 459.779 13.0941 462.336 13.0941Z" fill="#F2F2F2"/>
<path d="M462.336 31.5486C464.893 31.5486 466.966 29.4754 466.966 26.9181C466.966 24.3607 464.893 22.2876 462.336 22.2876C459.779 22.2876 457.706 24.3607 457.706 26.9181C457.706 29.4754 459.779 31.5486 462.336 31.5486Z" fill="#F2F2F2"/>
<path d="M462.336 50.003C464.893 50.003 466.966 47.9299 466.966 45.3725C466.966 42.8152 464.893 40.7421 462.336 40.7421C459.779 40.7421 457.706 42.8152 457.706 45.3725C457.706 47.9299 459.779 50.003 462.336 50.003Z" fill="#F2F2F2"/>
<path d="M462.336 68.4575C464.893 68.4575 466.966 66.3843 466.966 63.827C466.966 61.2696 464.893 59.1965 462.336 59.1965C459.779 59.1965 457.706 61.2696 457.706 63.827C457.706 66.3843 459.779 68.4575 462.336 68.4575Z" fill="#F2F2F2"/>
<path d="M480.99 172.744C480.611 171.701 480.455 170.59 480.535 169.483C480.615 168.376 480.927 167.298 481.452 166.32C481.977 165.342 482.703 164.486 483.582 163.809C484.461 163.131 485.473 162.647 486.552 162.387C486.894 162.307 487.241 162.25 487.591 162.218L504.991 131.716L500.597 124.167L511.534 115.729L519.902 127.352C520.9 128.749 521.42 130.431 521.387 132.147C521.353 133.864 520.767 135.524 519.715 136.881L495.827 167.466C495.914 167.708 495.988 167.956 496.049 168.206C496.308 169.286 496.337 170.408 496.132 171.498C495.927 172.589 495.494 173.625 494.861 174.537C494.229 175.449 493.411 176.217 492.46 176.79C491.51 177.364 490.45 177.73 489.348 177.865C489.028 177.906 488.706 177.926 488.384 177.926C486.77 177.921 485.196 177.421 483.874 176.495C482.552 175.568 481.546 174.259 480.99 172.744V172.744Z" fill="#FFB8B8"/>
<path d="M447.042 322.849L438.264 322.848L434.089 288.989L447.044 288.989L447.042 322.849Z" fill="#FFB8B8"/>
<path d="M431.995 320.34H448.923V330.999H421.336C421.336 329.6 421.612 328.213 422.147 326.92C422.683 325.627 423.468 324.452 424.458 323.462C425.448 322.472 426.623 321.687 427.916 321.151C429.209 320.616 430.595 320.34 431.995 320.34V320.34Z" fill="#2F2E41"/>
<path d="M519.356 322.849L510.578 322.848L506.402 288.989L519.357 288.989L519.356 322.849Z" fill="#FFB8B8"/>
<path d="M504.309 320.34H521.237V330.999H493.65C493.65 329.6 493.926 328.213 494.462 326.92C494.997 325.627 495.782 324.452 496.772 323.462C497.762 322.472 498.937 321.687 500.23 321.151C501.523 320.616 502.909 320.34 504.309 320.34V320.34Z" fill="#2F2E41"/>
<path d="M513.969 117.378L494.262 124.867L489.45 111.501C488.811 109.727 488.82 107.783 489.476 106.014C490.131 104.245 491.391 102.765 493.032 101.835V101.835C494.692 100.895 496.633 100.578 498.506 100.944C500.379 101.31 502.059 102.333 503.243 103.829L513.969 117.378Z" fill="#094D35"/>
<path d="M447.8 295.425L431.272 291.655C430.393 291.453 429.623 290.926 429.117 290.18C428.61 289.434 428.405 288.523 428.543 287.632C435.175 245.594 441.555 220.976 457.998 189.713C458.228 189.13 460.795 177.299 462.471 169.46C462.452 168.596 462.747 167.755 463.302 167.094C463.857 166.432 464.634 165.994 465.488 165.863L496.307 161.119C496.772 160.958 497.262 160.884 497.754 160.902L498.062 160.96L498.058 161.263C498.054 161.576 497.743 161.624 497.625 161.642L497.216 161.705C497.683 161.923 498.112 162.215 498.487 162.569C511.99 178.812 519.011 232.053 527.93 290.871C527.979 291.348 527.921 291.831 527.76 292.283C527.598 292.735 527.337 293.145 526.996 293.482C526.674 293.835 526.283 294.118 525.847 294.315C525.412 294.512 524.941 294.619 524.463 294.628L504.773 295.109C503.908 295.128 503.065 294.832 502.402 294.277C501.739 293.721 501.3 292.943 501.168 292.088L487.905 215.438C487.814 214.839 487.534 214.285 487.106 213.857C486.678 213.428 486.124 213.147 485.526 213.055C484.927 212.963 484.315 213.064 483.778 213.343C483.241 213.623 482.807 214.067 482.539 214.61C471.839 236.403 461.861 255.249 452.034 292.848C451.839 293.611 451.396 294.287 450.775 294.77C450.154 295.253 449.389 295.515 448.603 295.516C448.332 295.516 448.063 295.486 447.8 295.425V295.425Z" fill="#2F2E41"/>
<path d="M463.843 170.336C463.429 170.042 463.081 169.664 462.824 169.226C462.567 168.788 462.406 168.3 462.352 167.794C459.827 144.23 461.586 125.789 467.726 111.418C468.807 108.939 470.436 106.738 472.491 104.979C474.545 103.221 476.971 101.951 479.587 101.265L495.517 100.461L495.6 100.501C499.195 102.262 502.126 105.134 503.96 108.692C505.794 112.251 506.432 116.305 505.781 120.255C500.657 133.761 496.367 147.824 499.638 159.168C499.776 159.642 499.816 160.14 499.756 160.63C499.697 161.12 499.539 161.593 499.292 162.02C499.053 162.434 498.731 162.794 498.348 163.078C497.964 163.362 497.526 163.565 497.061 163.674L466.719 170.892C466.228 171.009 465.717 171.02 465.221 170.924C464.725 170.828 464.256 170.627 463.843 170.336V170.336Z" fill="#094D35"/>
<path d="M456.986 136.519L426.432 112.413C426.189 112.499 425.941 112.572 425.69 112.632C424.612 112.885 423.492 112.907 422.405 112.698C421.317 112.49 420.285 112.055 419.377 111.421C418.462 110.787 417.694 109.965 417.122 109.01C416.551 108.055 416.19 106.989 416.064 105.884C415.859 104.116 416.258 102.331 417.195 100.819C418.132 99.3061 419.552 98.1544 421.226 97.5506C422.27 97.1759 423.382 97.0261 424.489 97.111C425.595 97.196 426.671 97.5138 427.647 98.0436C428.622 98.5734 429.474 99.3033 430.147 100.185C430.821 101.068 431.3 102.082 431.555 103.162C431.633 103.505 431.688 103.852 431.719 104.202L462.134 121.75L469.703 117.392L478.088 128.37L466.336 136.747C464.96 137.72 463.308 138.223 461.623 138.182C459.939 138.141 458.313 137.558 456.986 136.519H456.986Z" fill="#FFB8B8"/>
<path d="M481.817 131.789L464.384 119.933L472.577 108.329C473.665 106.788 475.262 105.681 477.087 105.204C478.912 104.727 480.847 104.911 482.549 105.723V105.723C484.272 106.544 485.644 107.953 486.418 109.698C487.192 111.442 487.316 113.405 486.77 115.233L481.817 131.789Z" fill="#094D35"/>
<path d="M490.201 94.5104C499.913 94.5104 507.787 86.6367 507.787 76.924C507.787 67.2113 499.913 59.3376 490.201 59.3376C480.489 59.3376 472.616 67.2113 472.616 76.924C472.616 86.6367 480.489 94.5104 490.201 94.5104Z" fill="#FFB8B8"/>
<path d="M483.754 74.3047C479.234 77.3983 473.3 80.5783 468.683 77.2839C465.652 75.1207 464.697 71.115 465.926 67.5997C468.137 61.2782 474.21 58.4951 480.017 56.3619C487.567 53.5887 495.787 51.3825 503.581 53.3685C511.375 55.3545 518.263 62.9009 516.856 70.8202C515.724 77.1888 509.717 82.4879 510.57 88.8997C511.428 95.3526 518.685 98.7493 525.091 99.9026C531.498 101.056 538.666 101.426 543.27 106.028C549.144 111.899 547.677 122.392 542.151 128.59C536.624 134.788 528.284 137.598 520.203 139.508C509.496 142.038 497.915 143.368 487.746 139.169C477.577 134.969 469.664 123.663 472.61 113.062C473.854 108.584 476.785 104.8 479.618 101.116C482.451 97.4314 485.319 93.5788 486.4 89.0586C487.3 85.2918 486.634 80.9183 484.136 78.0927C483.682 77.5982 483.396 76.9723 483.319 76.3051C483.243 75.6379 483.38 74.9636 483.711 74.3791L483.754 74.3047Z" fill="#2F2E41"/>
</svg>
